<svg width="414" height="355" viewBox="0 0 414 355" fill="none" xmlns="http://www.w3.org/2000/svg">
<g id="tent">
<g id="path206189" filter="url(#filter0_f_3304_243)">
<path d="M386.472 243.757C386.472 243.757 298.863 232.145 276.195 239.577C253.527 247.009 239.087 268.898 185.061 254.762C131.036 240.626 82.5985 252.582 67.8949 260.014C53.1914 267.446 27.4601 300.888 11.5313 306.462C-4.39759 312.036 -10.9233 336.525 56.8673 333.402C167.757 328.292 175.108 363.128 257.816 351.052C295.754 345.512 332.559 298.101 368.705 295.314C404.852 292.528 437.935 257.692 386.472 243.757Z" fill="black" fill-opacity="0.75"/>
</g>
<path id="path206189_2" d="M386.472 236.073C386.472 236.073 298.863 224.461 276.195 231.892C253.527 239.324 239.087 261.214 185.061 247.077C131.036 232.941 82.5985 244.898 67.8949 252.329C53.1914 259.761 27.4601 293.204 11.5313 298.777C-4.39759 304.351 -10.9233 328.841 56.8673 325.717C167.757 320.608 175.108 355.444 257.816 343.367C295.754 337.828 332.559 290.417 368.705 287.63C404.852 284.843 437.935 250.007 386.472 236.073Z" fill="#D8B3F0"/>
<g id="g79103">
<path id="path79065" d="M118.463 63.6947L117.49 63.666C117.49 63.666 116.629 101.314 116.586 155.863C116.586 156.381 105.084 152.839 105.089 153.126C105.094 153.413 116.606 157.529 116.605 158.043C116.588 168.247 116.525 177.974 116.401 186.694C116.396 187.012 99.9456 177.031 99.9409 177.346C99.937 177.623 116.379 188.196 116.375 188.471C115.778 203.821 118.389 248.952 116.474 265.043C116.454 265.203 114.67 266.337 114.65 266.492L115.282 266.828C115.282 266.828 115.682 266.646 116.133 266.45C116.179 266.43 116.589 266.803 116.589 266.803L116.779 266.811C116.779 266.811 116.461 266.309 116.526 266.281C116.932 266.11 117.3 265.967 117.374 265.975C117.502 265.988 117.916 267.578 117.916 267.578C117.916 267.578 118.192 267.614 118.261 267.591C118.194 266.727 118.265 265.767 118.473 265.809C118.934 266.113 119.248 267.517 119.575 267.73C120.357 267.731 120.444 267.781 120.444 267.781C120.444 267.781 119.853 266.08 120.447 266.075C120.751 266.073 124.419 267.753 124.419 267.753C124.419 267.753 125.166 267.75 125.313 267.749C125.344 267.451 122.85 265.488 122.85 265.488C122.85 265.488 121.531 263.957 121.244 260.839C119.541 214.975 119.136 208.766 118.732 184.654C118.725 184.27 121.686 180.025 123.049 179.113C124.71 178.001 128.48 177.031 128.48 177.031C128.48 177.031 124.522 177.521 122.762 178.595C121.193 179.552 119.06 182.829 118.796 182.743C118.251 182.568 118.121 144.593 118.121 144.593L122.587 138.185L118.103 143.393L118.312 97.2503L123.619 93.2214L118.316 96.2275L118.463 63.6947Z" fill="#6E4F37"/>
<path id="path79067" d="M117.488 141.829C117.488 141.829 116.021 137.278 115.206 138.28C114.391 139.282 113.837 137.236 112.729 136.485C111.621 135.733 112.435 137.111 110.61 137.194C108.784 137.278 110.186 133.061 108.035 134.355C105.883 135.65 108.002 136.86 107.122 137.194C106.242 137.528 104.155 132.435 103.536 135.023C102.917 137.612 102.591 138.322 100.374 139.031C98.1572 139.741 105.101 141.745 105.264 140.618C105.427 139.491 108.198 139.992 108.035 141.996C107.872 144 110.447 146.421 111.327 143.874C112.207 141.328 112.924 142.497 114.228 143.206C115.532 143.916 117.488 141.829 117.488 141.829Z" fill="#D6B600"/>
<path id="path79069" d="M127.86 178.801C127.389 178.423 125.555 179.008 124.841 177.266C124.126 175.524 126.708 175.849 127.515 176.41C128.321 176.971 129.29 174.078 130.949 173.665C132.609 173.251 132.059 174.407 132.332 174.344C132.881 174.217 133.623 173.133 133.784 173.281C133.946 173.428 134.983 176.174 135.421 175.731C135.859 175.288 136.988 175.259 136.965 176.322C136.943 177.384 135.283 180.218 134.384 179.215C133.485 178.211 132.862 176.912 132.701 177.266C132.54 177.621 131.068 181.375 127.86 178.801Z" fill="#E2810E"/>
<path id="path79071" d="M102.233 161.585C103.191 160.917 104.965 164.596 107.907 157.638C108.298 156.711 111.923 156.818 112.123 154.194C112.476 149.557 108.119 152.931 107.563 152.257C106.304 150.731 104.23 150.824 103.914 152.553C103.389 155.43 103.021 149.944 101.655 150.145C100.289 150.345 101.287 152.954 100.92 153.289C100.552 153.623 98.6327 152.979 98.871 156.166C98.976 157.571 96.1516 155.497 96.3494 157.972C96.851 164.249 95.2082 159.329 93.0398 161.016C92.3825 161.528 93.4397 162.213 93.0236 162.741C91.8918 164.179 93.1087 165.826 93.7753 165.265C95.5614 163.759 97.6102 166.937 98.0304 166.067C98.4507 165.198 99.0414 162.169 101.13 163.257C101.708 163.559 101.732 161.935 102.233 161.585Z" fill="#E2810E"/>
<path id="path79073" d="M132.982 137.979C131.584 137.711 130.954 137.447 130.585 140.813C130.11 145.152 130.236 144.489 128.188 144.414C126.895 144.367 126.343 145.703 125.514 144.828C124.541 143.8 122.989 141.82 121.826 141.876C120.674 141.931 117.163 144.662 119.521 139.573C121.134 136.089 122.488 138.853 126.482 134.436C130.74 129.729 130.585 132.429 131.738 132.783C132.749 133.094 138.837 139.101 132.982 137.979Z" fill="#E2810E"/>
<path id="path79075" d="M115.494 124.976C114.657 124.747 113.292 121.953 112.3 123.285C111.044 124.971 110.219 121.174 109.177 123.261C108.157 125.304 108.62 125.147 107.885 125.59C107.491 125.829 106.402 124.359 105.446 126.594C105.048 127.526 103.715 126.078 103.674 127.429C103.64 128.569 105.121 129.828 105.894 130.465C108.629 132.72 109.723 131.284 110.153 131.322C111.021 131.399 114.325 133.042 114.993 130.904C115.661 128.767 118.365 131.953 119.199 130.461C120.034 128.968 118.118 127.83 117.864 127.345C116.884 125.478 117.977 125.655 115.494 124.976Z" fill="#E2810E"/>
<path id="path79077" d="M109.506 88.1153C108.531 88.6957 109.453 88.8771 109.649 90.5224C109.845 92.1677 108.375 89.8504 108.418 91.059C108.461 92.2675 110.526 93.857 111.052 92.963C111.578 92.069 112.605 92.7325 112.786 94.0496C112.968 95.3667 115.376 95.6408 114.691 94.3337C114.006 93.0266 114.203 92.5909 115.284 93.3164C116.365 94.0418 119.633 93.5427 118.665 92.5589C117.696 91.5752 116.951 92.0964 116.731 90.8217C116.51 89.547 115.88 88.6213 114.914 88.4043C114.409 88.2911 114.067 88.3912 114.029 88.8764C113.953 89.8577 114.015 90.1668 113.308 89.7437C112.6 89.3206 112.883 87.7298 112.169 87.901C110.78 88.2343 110.309 87.6374 109.506 88.1153Z" fill="#E2810E"/>
<path id="path79079" d="M118.676 131.77C118.555 131.77 116.147 130.825 118.013 130.057C119.88 129.29 118.284 126.161 119.669 126.84C121.054 127.519 119.91 123.976 121.144 124.714C122.379 125.452 128.219 125.57 127.707 126.485C127.196 127.4 130.688 126.426 129.423 127.755C128.159 129.083 125.48 128.463 125.389 129.349C125.299 130.235 126.804 131.061 125.179 131.858C123.553 132.655 122.288 136.552 121.536 135.312C120.783 134.072 119.82 131.829 119.248 131.799C118.676 131.77 118.676 131.77 118.676 131.77Z" fill="#E2810E"/>
<path id="path79081" d="M117.261 119.994C117.261 119.994 116.577 118.449 115.697 118.866C114.816 119.284 117.131 115.652 115.827 115.485C114.523 115.318 115.697 117.196 114.262 116.737C112.828 116.278 115.599 113.773 113.578 113.898C111.557 114.023 109.177 115.067 110.35 115.986C111.524 116.904 111.035 117.447 110.35 117.447C109.666 117.447 109.568 120.244 110.187 119.701C110.807 119.159 111.752 117.405 112.078 118.449C112.404 119.493 113.415 120.411 113.806 119.326C114.197 118.24 114.132 122.832 114.849 121.872C115.566 120.912 117.75 120.954 117.261 119.994Z" fill="#E2810E"/>
<path id="path79083" d="M119.345 117.343C118.031 116.044 116.763 116.546 119.184 115.513C121.604 114.48 119.645 113.948 119.414 114.066C119.184 114.184 119.921 110.701 120.982 112.561C122.042 114.421 122.618 110.612 123.609 112.974C124.601 115.336 122.895 113.83 123.01 114.893C123.125 115.956 125.799 113.417 125.961 114.863C126.122 116.31 129.003 116.133 129.073 114.391C129.142 112.649 130.824 112.59 130.917 113.653C131.009 114.716 129.142 114.686 129.833 115.395C130.525 116.103 130.755 117.668 129.81 117.698C128.865 117.727 128.773 121.831 127.828 121.004C126.883 120.177 124.969 122.952 124.67 121.594C124.37 120.236 125.477 117.668 124.739 118.317C124.001 118.967 124.9 120.384 124.393 120.295C123.886 120.207 121.581 121.388 122.157 119.823C122.734 118.258 120.59 118.258 120.452 119.056C120.313 119.853 118.792 119.38 119.045 118.672C119.299 117.963 119.689 117.48 119.345 117.343C119.345 117.343 119.345 117.343 119.345 117.343Z" fill="#E2810E"/>
<path id="path79085" d="M122.164 104.243C124.493 105.734 125.813 107.226 123.911 107.176C122.009 107.126 120.689 106.977 120.922 108.369C121.155 109.761 118.67 111.352 118.709 110.109C118.748 108.866 116.69 106.032 116.846 107.872C117.001 109.712 116.263 111.402 115.72 110.358C115.176 109.314 111.139 109.811 111.954 108.916C112.769 108.021 113.546 106.331 112.342 106.728C111.139 107.126 108.421 108.27 108.654 107.027C108.887 105.784 106.364 103.447 105.704 105.635C105.044 107.822 104.306 109.165 103.724 107.673C103.142 106.182 99.6866 106.579 100.929 105.038C102.171 103.497 101.899 98.4254 103.646 100.215C105.393 102.005 104.539 99.569 105.976 100.116C107.412 100.663 106.713 94.3982 108.654 96.2378C110.595 98.0774 109.353 103.646 110.44 101.657C111.527 99.6684 110.401 96.0389 112.187 97.8288C113.973 99.6187 111.411 101.806 113.041 101.508C114.672 101.21 115.914 96.0389 117.428 98.674C118.942 101.309 116.923 102.9 118.088 102.95C119.253 103 121.388 99.1215 121.737 100.812C122.087 102.502 122.093 103.088 122.164 104.243C122.164 104.243 122.164 104.243 122.164 104.243Z" fill="#E09900"/>
<path id="path79087" d="M120.129 96.4715C119.391 98.0952 119.668 98.5675 120.728 97.8886C121.788 97.2096 123.125 99.3056 123.31 98.0066C123.494 96.7077 124.163 96.1468 125.131 96.7077C126.099 97.2686 127.321 95.5859 126.491 94.9955C125.661 94.405 127.574 93.2537 127.782 94.4346C127.989 95.6154 129.764 93.2832 127.874 92.5747C125.984 91.8662 127.159 90.5968 127.712 90.3901C128.266 90.1835 126.675 88.2351 126.445 89.3569C126.214 90.4787 126.03 86.7885 125.361 88.2646C124.693 89.7407 121.696 86.021 122.272 88.3532C122.849 90.6854 123.978 88.855 123.955 89.5635C123.932 90.2721 122.203 91.7186 121.373 90.0064C120.544 88.2941 119.76 91.4529 120.244 91.3643C120.728 91.2758 120.912 92.6042 120.451 92.4566C119.99 92.309 118.676 94.2869 119.368 94.6707C120.06 95.0545 121.189 94.2279 120.958 94.9069C120.728 95.5859 119.953 95.8825 120.129 96.4715C120.129 96.4715 120.129 96.4715 120.129 96.4715Z" fill="#E2810E"/>
<path id="path79089" d="M112.244 82.7738C112.078 79.6424 109.732 83.8956 111.368 84.427C113.005 84.9584 112.59 87.1725 113.72 86.0802C114.849 84.9879 114.342 84.9879 115.218 85.5193C116.094 86.0507 117.8 84.8403 117.73 84.2204C117.661 83.6004 119.546 85.4456 119.114 85.9031C118.583 86.464 119.667 87.2906 121.211 86.3164C122.756 85.3422 121.81 85.1355 123.055 85.5784C124.3 86.0212 125.107 85.3717 124.83 84.7222C124.554 84.0728 127.227 83.9252 127.642 85.047C128.057 86.1688 130.224 82.5672 128.564 82.7443C126.905 82.9214 127.665 81.2682 126.928 81.7996C126.19 82.331 125.476 82.272 125.176 81.0321C124.876 79.7922 124.046 79.7036 123.701 80.4121C123.355 81.1206 123.055 80.0874 122.917 79.3494C122.779 78.6113 121.857 77.2533 121.419 78.4342C120.981 79.6151 120.857 76.76 120.174 77.2533C119.275 77.9028 120.723 78.9656 119.598 78.9656C118.86 78.9656 120.036 77.1648 118.653 76.9581C117.522 76.7892 118.468 77.8438 117.915 78.198C117.362 78.5523 116.301 77.3124 116.509 78.1095C116.716 78.9065 117.684 79.7922 116.532 79.556C115.379 79.3198 113.835 80.0579 114.434 80.3826C115.034 80.7073 114.181 82.6557 113.973 81.6815C113.766 80.7073 113.581 80.4712 113.028 81.1502C112.475 81.8292 113.558 82.3901 112.959 82.5967C112.515 82.636 112.274 83.2248 112.244 82.7738Z" fill="#D6B600"/>
<path id="path79091" d="M110.838 68.8093C109.363 68.3664 109.916 67.1265 111.092 67.4808C112.267 67.8351 112.221 65.739 112.682 66.6247C113.143 67.5103 113.858 65.5324 114.203 66.3295C114.549 67.1265 115.056 67.8351 115.333 66.8904C115.61 65.9457 116.508 66.0047 116.532 66.6247C116.555 67.2446 115.702 67.1856 116.14 67.717C116.578 68.2484 118.007 66.0047 117.892 67.097C117.776 68.1893 120.888 69.5768 119.574 70.1377C118.26 70.6986 116.762 70.6101 117.039 71.5843C117.315 72.5585 117.2 73.8279 115.978 73.0013C114.757 72.1747 113.12 74.6545 112.82 73.1194C112.521 71.5843 110.239 71.9681 110.561 71.2005C110.884 70.4329 109.363 69.4292 110.285 69.5768C111.207 69.7244 111.783 68.8388 111.299 68.8683C110.815 68.8978 110.942 68.9559 110.838 68.8093C110.838 68.8093 110.838 68.8093 110.838 68.8093Z" fill="#E2810E"/>
<path id="path79093" d="M118.629 65.2674C117.43 65.5331 117.5 65.0017 118.214 64.3523C118.929 63.7028 118.606 62.7581 117.546 62.9943C116.485 63.2305 115.102 59.7765 116.255 60.1307C117.407 60.485 118.053 58.1233 118.56 59.3632C119.067 60.6031 120.519 58.8908 120.542 60.1012C120.565 61.3116 122.479 61.1935 122.363 60.6031C122.248 60.0126 123.769 58.8023 124.046 60.1602C124.323 61.5182 127.411 60.8097 126.766 62.7876C126.121 64.7656 125.106 65.2084 124.138 64.4113C123.17 63.6142 122.663 64.8837 122.456 65.5922C122.248 66.3007 121.441 66.5073 120.911 65.415C120.381 64.3227 120.335 64.0275 119.874 64.5884C119.413 65.1493 118.9 65.2073 118.629 65.2674Z" fill="#FAD400"/>
<path id="path79095" d="M110.537 180.489C112.013 182.674 115.148 182.26 111.874 183.973C108.601 185.685 113.073 189.759 110.03 190.881C106.988 192.002 106.112 191.412 106.066 188.755C106.019 186.098 104.683 184.15 103.023 186.57C101.363 188.991 104.913 188.401 103.115 189.286C101.317 190.172 100.626 190.29 100.257 187.987C99.888 185.685 99.7497 185.508 97.9517 186.334C96.1537 187.161 93.9408 185.685 94.4019 183.677C94.8629 181.67 93.0188 173.699 96.2459 176.71C99.473 179.722 100.211 171.692 101.64 175.175C103.069 178.659 106.757 169.094 107.126 172.636C107.495 176.179 101.686 179.781 105.282 179.249C108.878 178.718 110.814 170.806 110.998 174.88C111.183 178.954 109.555 179.092 110.537 180.489C110.537 180.489 110.537 180.489 110.537 180.489Z" fill="#E2810E"/>
<path id="path79097" d="M100.152 165.284C99.2735 165.513 97.1168 168.559 100.464 170.853C103.81 173.148 101.499 173.556 101.691 174.557C101.884 175.559 103.43 182.223 105.719 180.127C108.007 178.03 109.01 183.591 109.399 181.425C109.788 179.259 109.962 175.667 108.575 176.358C107.188 177.049 107.202 174.061 109.317 173.325C111.432 172.589 111.252 167.337 109.652 167.865C108.051 168.394 105.904 169.756 105.925 167.653C105.945 165.551 105.9 162.174 104.684 163.442C103.467 164.709 103.244 162.102 101.999 162.059C100.754 162.017 102.083 165.696 101.299 165.647C100.514 165.598 101.031 165.054 100.152 165.284Z" fill="#FAD400"/>
<path id="path79099" d="M112.257 156.146C111.312 154.517 111.135 149.366 115.174 150.53C116.478 150.906 116.392 151.708 117.636 150.864C118.973 149.956 119.478 150.28 120.798 151.324C122.339 152.542 122.493 154.476 125.101 153.724C127.607 153.002 130.903 153.14 129.404 154.893C127.904 156.647 132.533 160.404 132.99 157.398C133.446 154.392 134.033 148.881 137.228 152.639C140.422 156.396 139.835 163.577 138.597 161.991C137.358 160.404 134.685 162.074 134.098 163.911C133.511 165.748 131.295 170.424 129.599 167.752C127.904 165.08 126.405 164.997 126.144 166.249C125.883 167.501 120.602 168.002 121.906 165.498C123.21 162.993 120.602 159.152 119.559 159.987C118.516 160.822 113.561 160.738 113.104 159.486C112.648 158.233 113.202 157.774 112.257 156.146Z" fill="#E09900"/>
<path id="path79101" d="M108.785 109.473C110.338 108.887 110.252 108.471 110.089 109.64C109.926 110.809 108.72 112.938 107.481 112.103C106.243 111.268 104.939 112.145 105.786 112.98C106.634 113.815 103.733 116.027 103.635 115.151C103.537 114.274 104.091 112.771 103.309 113.481C102.526 114.19 100.375 115.61 100.701 113.94C101.027 112.27 100.701 111.143 99.886 111.644C99.071 112.145 97.8974 108.763 99.0384 108.888C100.179 109.014 100.799 106.383 101.386 107.427C101.972 108.471 103.537 107.928 103.439 107.177C103.341 106.425 105.558 105.674 105.526 106.717C105.493 107.761 104.417 110.057 105.297 110.015C106.178 109.974 105.297 107.886 105.819 107.928C106.341 107.97 107.058 106.216 107.612 106.968C108.166 107.719 107.722 109.874 108.785 109.473Z" fill="#E2810E"/>
</g>
<g id="g79009">
<path id="rect491" d="M183.145 13.0409L184.715 13C184.715 13 186.102 66.6271 186.171 144.328C186.171 145.066 204.711 140.02 204.703 140.429C204.695 140.837 186.139 146.701 186.141 147.433C186.168 161.969 186.269 175.823 186.47 188.245C186.477 188.697 212.992 174.481 213 174.929C213.006 175.324 186.505 190.384 186.512 190.776C187.484 212.859 184.88 297.732 187.562 300.353L192.319 305L189.383 304.883C189.383 304.883 187.114 303.34 184.895 302.106C184.262 301.754 183.489 304.512 183.489 304.512L181.567 304.789C181.567 304.789 182.002 300.507 180.883 301.426C179.872 302.256 178.112 304.281 178.112 304.281L176.692 303.694C176.692 303.694 178.056 300.994 178.141 300.773C182.217 290.169 182.498 212.695 182.497 210.265C182.497 209.499 171.232 203.903 171.232 203.903L171.037 203.01C171.037 203.01 179.266 207.163 180.393 207.568C182.636 208.374 182.336 207.201 182.336 207.201C182.336 207.201 182.701 185.971 182.713 185.338C182.723 184.79 177.951 178.744 175.755 177.445C173.076 175.861 167 174.479 167 174.479C167 174.479 173.38 175.178 176.216 176.707C178.746 178.071 182.184 182.738 182.61 182.616C183.488 182.366 183.697 128.274 183.697 128.274L176.5 119.146L183.726 126.565L183.39 60.8377L174.835 55.0988L183.383 59.3808L183.145 13.0409Z" fill="#6E4F37"/>
<path id="path1800" d="M186.736 124.304C186.736 124.304 188.832 117.804 189.996 119.235C191.16 120.666 191.951 117.744 193.534 116.671C195.117 115.598 193.953 117.565 196.561 117.685C199.168 117.804 197.166 111.781 200.239 113.63C203.312 115.478 200.286 117.208 201.543 117.685C202.8 118.162 205.78 110.887 206.664 114.584C207.549 118.281 208.015 119.295 211.181 120.308C214.347 121.322 204.429 124.184 204.197 122.574C203.964 120.964 200.006 121.68 200.239 124.542C200.472 127.404 196.793 130.863 195.536 127.225C194.279 123.588 193.255 125.258 191.392 126.271C189.53 127.285 186.736 124.304 186.736 124.304Z" fill="#FAD400"/>
<path id="path10624" d="M171.923 177.112C172.596 176.572 175.216 177.407 176.236 174.92C177.257 172.432 173.569 172.896 172.417 173.697C171.265 174.498 169.882 170.366 167.511 169.775C165.141 169.185 165.926 170.835 165.536 170.745C164.752 170.564 163.692 169.016 163.462 169.227C163.231 169.438 161.75 173.359 161.124 172.727C160.499 172.094 158.886 172.052 158.918 173.57C158.951 175.088 161.322 179.136 162.606 177.702C163.89 176.269 164.779 174.414 165.009 174.92C165.24 175.425 167.342 180.787 171.923 177.112Z" fill="#D8B3F0"/>
<path id="path10626" d="M205.892 132.675C204.524 133.629 201.991 128.375 197.789 138.313C197.229 139.636 192.052 139.483 191.766 143.232C191.262 149.854 197.485 145.035 198.28 145.998C200.077 148.178 203.04 148.045 203.491 145.575C204.242 141.466 204.767 149.302 206.718 149.015C208.669 148.728 207.243 145.002 207.768 144.524C208.293 144.046 211.035 144.967 210.694 140.415C210.544 138.408 214.579 141.371 214.296 137.835C213.58 128.87 215.926 135.897 219.023 133.487C219.962 132.756 218.452 131.778 219.046 131.023C220.663 128.969 218.925 126.617 217.973 127.419C215.422 129.569 212.495 125.03 211.895 126.272C211.295 127.515 210.451 131.84 207.468 130.286C206.643 129.856 206.609 132.175 205.892 132.675Z" fill="#CA730C"/>
<path id="path10628" d="M179.807 124.201C177.809 123.819 176.91 123.442 176.383 128.249C175.704 134.447 175.885 133.5 172.959 133.393C171.112 133.326 170.324 135.234 169.14 133.984C167.75 132.516 165.534 129.688 163.872 129.767C162.227 129.846 157.213 133.748 160.58 126.478C162.885 121.503 164.817 125.45 170.523 119.142C176.604 112.418 176.383 116.274 178.029 116.78C179.474 117.224 188.17 125.804 179.807 124.201Z" fill="#D6B600"/>
<path id="path1860" d="M189.586 100.233C190.781 99.9058 192.731 95.9157 194.148 97.8173C195.942 100.226 197.119 94.8027 198.608 97.7836C200.066 100.702 199.404 100.477 200.453 101.111C201.016 101.451 202.572 99.3523 203.937 102.545C204.506 103.875 206.41 101.808 206.468 103.737C206.517 105.365 204.401 107.164 203.298 108.073C199.391 111.294 197.829 109.243 197.214 109.297C195.974 109.407 191.255 111.754 190.301 108.701C189.348 105.648 185.486 110.198 184.294 108.067C183.102 105.936 185.837 104.31 186.201 103.617C187.601 100.95 186.039 101.203 189.586 100.233Z" fill="#E2810E"/>
<path id="path1927" d="M198.138 47.5846C199.531 48.4137 198.214 48.6727 197.935 51.0227C197.655 53.3727 199.754 50.0629 199.693 51.789C199.632 53.5152 196.682 55.7855 195.931 54.5086C195.179 53.2317 193.713 54.1794 193.454 56.0606C193.195 57.9418 189.755 58.3333 190.733 56.4663C191.711 54.5994 191.43 53.9772 189.887 55.0133C188.343 56.0494 183.674 55.3365 185.058 53.9315C186.441 52.5264 187.505 53.2709 187.82 51.4502C188.135 49.6295 189.036 48.3073 190.415 47.9975C191.135 47.8358 191.624 47.9787 191.678 48.6717C191.787 50.0733 191.699 50.5148 192.709 49.9105C193.72 49.3062 193.316 47.0341 194.335 47.2786C196.32 47.7546 196.992 46.9021 198.138 47.5846Z" fill="#E09900"/>
<path id="path1925" d="M185.042 109.936C185.214 109.936 188.653 108.587 185.988 107.491C183.322 106.394 185.601 101.925 183.623 102.895C181.645 103.864 183.279 98.8046 181.516 99.8587C179.753 100.913 171.411 101.081 172.142 102.389C172.873 103.696 167.885 102.304 169.691 104.202C171.497 106.099 175.324 105.214 175.453 106.479C175.582 107.744 173.432 108.924 175.754 110.063C178.076 111.201 179.882 116.767 180.957 114.996C182.032 113.225 183.408 110.02 184.225 109.978C185.042 109.936 185.042 109.936 185.042 109.936Z" fill="#DF8211"/>
<path id="path2034" d="M187.063 93.1168C187.063 93.1168 188.041 90.9105 189.298 91.5068C190.555 92.1031 187.249 86.9153 189.111 86.6767C190.974 86.4382 189.298 89.1216 191.346 88.4656C193.395 87.8097 189.437 84.2319 192.324 84.4108C195.211 84.5897 198.61 86.0804 196.934 87.3923C195.258 88.7042 195.956 89.4794 196.934 89.4794C197.911 89.4794 198.051 93.4746 197.166 92.6994C196.282 91.9242 194.932 89.4197 194.466 90.9105C194 92.4013 192.557 93.7131 191.998 92.1627C191.44 90.6124 191.533 97.1717 190.508 95.8002C189.484 94.4287 186.364 94.4883 187.063 93.1168Z" fill="#E09900"/>
<path id="path2036" d="M184.089 89.3317C185.966 87.4764 187.776 88.1932 184.319 86.7175C180.862 85.2417 183.661 84.4827 183.99 84.6514C184.319 84.82 183.266 79.8445 181.751 82.5009C180.237 85.1573 179.414 79.718 177.998 83.0913C176.582 86.4645 179.019 84.314 178.854 85.832C178.689 87.3499 174.87 83.7237 174.64 85.7898C174.409 87.8559 170.294 87.6029 170.195 85.1152C170.096 82.6274 167.693 82.5431 167.561 84.061C167.43 85.579 170.096 85.5368 169.109 86.5488C168.121 87.5608 167.792 89.7955 169.142 89.8377C170.492 89.8798 170.623 95.7408 171.973 94.5602C173.323 93.3795 176.056 97.3431 176.484 95.4035C176.912 93.4639 175.331 89.7955 176.385 90.7231C177.438 91.6508 176.154 93.6747 176.879 93.5482C177.603 93.4217 180.895 95.1083 180.072 92.8736C179.249 90.6388 182.311 90.6388 182.509 91.7773C182.706 92.9157 184.879 92.2411 184.517 91.2291C184.155 90.2172 183.598 89.5272 184.089 89.3317C184.089 89.3317 184.089 89.3317 184.089 89.3317Z" fill="#C78800"/>
<path id="path2038" d="M180.06 70.62C176.733 72.7504 174.848 74.8808 177.565 74.8097C180.282 74.7387 182.167 74.5257 181.834 76.5141C181.501 78.5024 185.05 80.7748 184.995 78.9995C184.939 77.2242 187.878 73.1764 187.656 75.8039C187.434 78.4314 188.488 80.8459 189.264 79.3546C190.04 77.8633 195.807 78.5734 194.643 77.2952C193.478 76.017 192.369 73.6025 194.088 74.1706C195.807 74.7387 199.689 76.372 199.356 74.5967C199.023 72.8214 202.627 69.4838 203.57 72.6083C204.513 75.7329 205.566 77.6503 206.398 75.5199C207.229 73.3895 212.164 73.9576 210.39 71.7562C208.616 69.5548 209.004 62.3114 206.509 64.8679C204.013 67.4244 205.233 63.9447 203.182 64.7259C201.13 65.507 202.128 56.5594 199.356 59.1869C196.583 61.8143 198.358 69.7678 196.805 66.9273C195.253 64.0868 196.861 58.9028 194.31 61.4593C191.759 64.0157 195.419 67.1403 193.09 66.7142C190.761 66.2882 188.987 58.9028 186.824 62.6665C184.662 66.4302 187.545 68.7026 185.882 68.7736C184.218 68.8446 181.169 63.3056 180.67 65.7201C180.171 68.1345 180.162 68.9712 180.06 70.62C180.06 70.62 180.06 70.62 180.06 70.62Z" fill="#E09900"/>
<path id="path2103" d="M182.969 59.5199C184.023 61.839 183.628 62.5136 182.113 61.5439C180.599 60.5741 178.689 63.5678 178.426 61.7125C178.162 59.8572 177.207 59.0561 175.825 59.8572C174.442 60.6584 172.697 58.255 173.882 57.4117C175.067 56.5684 172.335 54.9239 172.039 56.6105C171.742 58.2971 169.207 54.9661 171.907 53.9541C174.607 52.9422 172.927 51.1291 172.137 50.8339C171.347 50.5387 173.619 47.7558 173.948 49.3581C174.277 50.9604 174.541 45.6897 175.495 47.798C176.45 49.9063 180.73 44.5935 179.907 47.9245C179.084 51.2556 177.471 48.6413 177.504 49.6533C177.537 50.6652 180.006 52.7313 181.191 50.2858C182.376 47.8402 183.496 52.3518 182.804 52.2254C182.113 52.0989 181.85 53.9963 182.508 53.7855C183.167 53.5746 185.043 56.3997 184.056 56.9478C183.068 57.496 181.455 56.3154 181.784 57.2852C182.113 58.255 183.22 58.6786 182.969 59.5199C182.969 59.5199 182.969 59.5199 182.969 59.5199Z" fill="#E09900"/>
<path id="path2105" d="M194.229 39.9551C194.466 35.4824 197.817 41.5574 195.48 42.3163C193.142 43.0753 193.735 46.2377 192.121 44.6776C190.508 43.1175 191.232 43.1175 189.981 43.8764C188.73 44.6354 186.294 42.9066 186.393 42.0212C186.492 41.1357 183.8 43.7712 184.417 44.4246C185.175 45.2257 183.627 46.4063 181.421 45.0149C179.215 43.6234 180.565 43.3283 178.787 43.9608C177.01 44.5932 175.857 43.6656 176.252 42.738C176.647 41.8103 172.828 41.5995 172.236 43.2018C171.643 44.8041 168.548 39.6599 170.919 39.9129C173.289 40.1659 172.203 37.8047 173.256 38.5636C174.31 39.3226 175.33 39.2383 175.759 37.4673C176.187 35.6964 177.372 35.5699 177.866 36.5819C178.359 37.5938 178.787 36.1181 178.985 35.0639C179.183 34.0098 180.499 32.0702 181.125 33.7568C181.751 35.4434 181.927 31.3655 182.903 32.0702C184.187 32.9978 182.118 34.5158 183.726 34.5158C184.78 34.5158 183.1 31.9437 185.076 31.6485C186.691 31.4072 185.339 32.9135 186.129 33.4195C186.92 33.9255 188.434 32.1545 188.138 33.293C187.841 34.4314 186.459 35.6964 188.105 35.3591C189.751 35.0218 191.957 36.0759 191.101 36.5397C190.245 37.0035 191.463 39.7864 191.759 38.395C192.056 37.0035 192.319 36.6662 193.109 37.636C193.899 38.6058 192.352 39.4069 193.208 39.7021C193.842 39.7581 194.186 40.5992 194.229 39.9551Z" fill="#CA730C"/>
<path id="path2107" d="M196.236 20.0115C198.343 19.379 197.553 17.608 195.874 18.114C194.195 18.62 194.261 15.6263 193.602 16.8912C192.944 18.1562 191.923 15.3311 191.429 16.4696C190.935 17.608 190.211 18.62 189.816 17.2707C189.421 15.9214 188.137 16.0058 188.104 16.8912C188.071 17.7767 189.289 17.6924 188.664 18.4513C188.038 19.2103 185.997 16.0058 186.161 17.5659C186.326 19.126 181.881 21.1077 183.758 21.9089C185.635 22.71 187.775 22.5835 187.38 23.975C186.984 25.3664 187.149 27.1795 188.894 25.9989C190.639 24.8183 192.977 28.3601 193.405 26.1676C193.833 23.975 197.092 24.5231 196.631 23.4268C196.17 22.3305 198.343 20.8969 197.026 21.1077C195.709 21.3186 194.886 20.0536 195.577 20.0958C196.269 20.138 196.088 20.2209 196.236 20.0115C196.236 20.0115 196.236 20.0115 196.236 20.0115Z" fill="#D6B600"/>
<path id="path2109" d="M185.109 14.9517C186.821 15.3312 186.722 14.5722 185.701 13.6446C184.681 12.717 185.142 11.3677 186.656 11.705C188.171 12.0423 190.146 7.10901 188.5 7.615C186.854 8.12098 185.932 4.74776 185.207 6.5187C184.483 8.28964 182.409 5.84406 182.376 7.57283C182.343 9.3016 179.61 9.13294 179.775 8.28964C179.94 7.44634 177.767 5.71757 177.372 7.65716C176.977 9.59676 172.565 8.58479 173.487 11.4099C174.409 14.2349 175.857 14.8674 177.24 13.7289C178.623 12.5905 179.347 14.4036 179.643 15.4156C179.94 16.4275 181.092 16.7227 181.849 15.1626C182.606 13.6024 182.672 13.1808 183.331 13.9819C183.989 14.7831 184.721 14.8658 185.109 14.9517Z" fill="#FAD400"/>
<path id="path2111" d="M196.664 179.522C194.557 182.643 190.079 182.052 194.754 184.498C199.429 186.944 193.042 192.762 197.388 194.365C201.734 195.967 202.985 195.124 203.051 191.329C203.117 187.534 205.026 184.751 207.397 188.209C209.767 191.666 204.697 190.823 207.265 192.088C209.833 193.353 210.821 193.521 211.348 190.232C211.874 186.944 212.072 186.691 214.64 187.871C217.208 189.052 220.369 186.944 219.71 184.076C219.052 181.209 221.686 169.825 217.076 174.125C212.467 178.426 211.413 166.957 209.372 171.933C207.331 176.908 202.063 163.247 201.536 168.307C201.01 173.366 209.306 178.511 204.17 177.752C199.034 176.993 196.269 165.692 196.005 171.511C195.742 177.33 198.067 177.527 196.664 179.522C196.664 179.522 196.664 179.523 196.664 179.522Z" fill="#CF793A"/>
<path id="path2113" d="M211.5 157.804C212.755 158.133 215.836 162.482 211.055 165.76C206.275 169.038 209.576 169.62 209.302 171.05C209.027 172.48 206.818 181.998 203.55 179.004C200.281 176.01 198.848 183.953 198.293 180.859C197.738 177.766 197.489 172.635 199.47 173.622C201.451 174.609 201.432 170.341 198.411 169.29C195.39 168.239 195.647 160.737 197.932 161.491C200.218 162.246 203.284 164.192 203.255 161.189C203.226 158.186 203.291 153.363 205.028 155.174C206.765 156.984 207.084 153.261 208.863 153.199C210.641 153.138 208.743 158.393 209.863 158.323C210.983 158.253 210.245 157.476 211.5 157.804Z" fill="#E2810E"/>
<path id="path2115" d="M194.21 154.179C195.56 156.505 195.812 163.862 190.042 162.2C188.18 161.663 188.303 160.517 186.527 161.723C184.616 163.02 183.896 162.557 182.011 161.067C179.809 159.326 179.59 156.565 175.865 157.638C172.284 158.67 167.577 158.473 169.719 155.968C171.86 153.464 165.249 148.097 164.597 152.39C163.945 156.684 163.107 164.555 158.544 159.188C153.981 153.822 154.819 143.565 156.589 145.831C158.358 148.097 162.176 145.712 163.014 143.088C163.852 140.464 167.018 133.786 169.439 137.602C171.86 141.418 174.002 141.538 174.375 139.749C174.747 137.96 182.29 137.244 180.428 140.822C178.565 144.4 182.29 149.886 183.78 148.693C185.27 147.501 192.347 147.62 192.999 149.409C193.651 151.198 192.859 151.854 194.21 154.179Z" fill="#C78800"/>
<path id="path2117" d="M199.168 78.0895C196.95 77.2522 197.072 76.6584 197.305 78.328C197.538 79.9977 199.261 83.0388 201.03 81.8462C202.799 80.6536 204.662 81.9058 203.451 83.0984C202.241 84.2911 206.384 87.4515 206.524 86.1992C206.664 84.947 205.872 82.8003 206.99 83.814C208.107 84.8277 211.18 86.8552 210.715 84.47C210.249 82.0847 210.715 80.4747 211.879 81.1903C213.043 81.9058 214.719 77.0758 213.089 77.2547C211.46 77.4336 210.575 73.6768 209.737 75.1676C208.899 76.6584 206.664 75.8832 206.804 74.8098C206.943 73.7365 203.777 72.6631 203.824 74.1539C203.87 75.6446 205.407 78.9243 204.15 78.8647C202.892 78.8051 204.15 75.8235 203.405 75.8832C202.66 75.9428 201.635 73.4383 200.844 74.5117C200.052 75.585 200.686 78.6629 199.168 78.0895Z" fill="#FAD400"/>
</g>
<g id="g117521">
<path id="path75859" d="M234.788 28.4349C236.869 24.7144 240.703 23.7185 243.66 27.4365C243.66 27.4365 247.828 18.8644 252.813 25.784C252.813 25.784 246.476 21.2742 243.941 32.9791C241.942 25.8873 239.218 26.0157 234.788 28.4349Z" fill="#666666"/>
<path id="path75861" d="M260.538 4.10653C263.47 1.14851 266.186 0.932925 268.651 4.04425C268.651 4.04425 273.441 -3.29866 278.563 1.80404C278.563 1.80404 272.056 -2.45859 269.675 9.89367C266.657 5.4755 266.61 2.72908 260.538 4.10653Z" fill="#666666"/>
</g>
<g id="g79049">
<path id="rect491_2" d="M326.079 60.0267L324.782 60C324.782 60 323.636 95.078 323.579 145.903C323.579 146.386 308.264 143.085 308.27 143.352C308.277 143.62 323.605 147.455 323.604 147.934C323.581 157.442 323.498 166.504 323.332 174.63C323.326 174.925 301.422 165.626 301.416 165.919C301.411 166.178 323.303 176.029 323.297 176.285C322.495 190.729 324.646 246.246 322.43 247.96L318.5 251L320.926 250.923C320.926 250.923 322.8 249.914 324.634 249.107C325.156 248.877 325.795 250.681 325.795 250.681L327.382 250.862C327.382 250.862 327.023 248.061 327.947 248.662C328.783 249.205 330.237 250.53 330.237 250.53L331.409 250.146C331.409 250.146 330.283 248.38 330.213 248.235C326.846 241.299 326.614 190.623 326.614 189.033C326.614 188.532 335.92 184.871 335.92 184.871L336.081 184.287C336.081 184.287 329.283 187.004 328.352 187.269C326.5 187.796 326.747 187.029 326.747 187.029C326.747 187.029 326.446 173.142 326.436 172.728C326.427 172.37 330.369 168.415 332.184 167.565C334.396 166.529 339.416 165.625 339.416 165.625C339.416 165.625 334.145 166.082 331.803 167.082C329.713 167.974 326.873 171.027 326.521 170.948C325.796 170.784 325.623 135.402 325.623 135.402L331.568 129.431L325.599 134.284L325.876 91.2911L332.943 87.5372L325.883 90.3381L326.079 60.0267Z" fill="#6E4F37"/>
<path id="path79013" d="M320.487 129.001C320.487 129.001 318.929 124.166 318.063 125.231C317.197 126.295 316.608 124.122 315.431 123.323C314.253 122.525 315.119 123.989 313.179 124.078C311.24 124.166 312.729 119.686 310.443 121.061C308.157 122.436 310.409 123.723 309.474 124.078C308.538 124.432 306.322 119.021 305.664 121.771C305.006 124.521 304.659 125.275 302.304 126.029C299.949 126.783 307.326 128.912 307.499 127.715C307.673 126.517 310.616 127.049 310.443 129.179C310.27 131.308 313.006 133.88 313.941 131.175C314.877 128.469 315.638 129.711 317.024 130.465C318.409 131.219 320.487 129.001 320.487 129.001Z" fill="#CF793A"/>
<path id="path79015" d="M331.506 168.282C331.005 167.88 329.057 168.502 328.297 166.651C327.538 164.801 330.281 165.146 331.138 165.742C331.995 166.338 333.024 163.264 334.787 162.825C336.551 162.386 335.966 163.613 336.257 163.546C336.84 163.412 337.628 162.26 337.8 162.417C337.971 162.574 339.073 165.491 339.538 165.02C340.004 164.55 341.204 164.518 341.179 165.648C341.155 166.777 339.392 169.788 338.436 168.721C337.481 167.655 336.82 166.275 336.649 166.651C336.477 167.028 334.914 171.016 331.506 168.282Z" fill="#E09900"/>
<path id="path79017" d="M304.276 149.991C305.294 149.281 307.179 153.19 310.304 145.797C310.72 144.813 314.572 144.926 314.784 142.138C315.159 137.212 310.53 140.797 309.939 140.08C308.602 138.459 306.398 138.558 306.062 140.395C305.504 143.452 305.113 137.623 303.662 137.836C302.211 138.05 303.272 140.822 302.881 141.177C302.49 141.532 300.451 140.847 300.704 144.234C300.816 145.726 297.815 143.523 298.025 146.153C298.558 152.821 296.813 147.594 294.509 149.387C293.811 149.93 294.934 150.658 294.492 151.22C293.289 152.747 294.582 154.497 295.29 153.901C297.188 152.301 299.365 155.678 299.811 154.753C300.258 153.829 300.885 150.612 303.104 151.768C303.718 152.088 303.744 150.363 304.276 149.991Z" fill="#E2810E"/>
<path id="path79019" d="M336.946 124.911C335.46 124.626 334.791 124.346 334.399 127.922C333.894 132.532 334.028 131.828 331.852 131.748C330.478 131.698 329.892 133.118 329.011 132.187C327.977 131.096 326.329 128.992 325.093 129.051C323.869 129.109 320.139 132.012 322.644 126.605C324.358 122.903 325.796 125.839 330.04 121.147C334.563 116.146 334.399 119.014 335.623 119.391C336.698 119.721 343.166 126.103 336.946 124.911Z" fill="#FAD400"/>
<path id="path79021" d="M318.365 111.095C317.477 110.852 316.026 107.884 314.972 109.298C313.638 111.09 312.762 107.056 311.654 109.273C310.57 111.444 311.062 111.277 310.282 111.748C309.863 112.001 308.706 110.44 307.69 112.815C307.267 113.805 305.851 112.267 305.808 113.702C305.771 114.913 307.345 116.251 308.166 116.927C311.072 119.323 312.234 117.797 312.692 117.838C313.614 117.919 317.124 119.665 317.834 117.394C318.543 115.123 321.416 118.508 322.302 116.923C323.189 115.337 321.154 114.128 320.884 113.613C319.842 111.629 321.004 111.817 318.365 111.095Z" fill="#E09900"/>
<path id="path79023" d="M312.004 71.9332C310.968 72.5499 311.947 72.7426 312.155 74.4906C312.363 76.2387 310.802 73.7767 310.847 75.0607C310.893 76.3447 313.087 78.0335 313.646 77.0837C314.205 76.1338 315.296 76.8387 315.488 78.2381C315.681 79.6374 318.239 79.9287 317.512 78.5399C316.784 77.1512 316.993 76.6883 318.142 77.4591C319.29 78.2298 322.763 77.6995 321.734 76.6543C320.704 75.6092 319.913 76.163 319.679 74.8086C319.445 73.4542 318.775 72.4708 317.748 72.2403C317.213 72.12 316.849 72.2263 316.809 72.7418C316.728 73.7844 316.794 74.1128 316.042 73.6633C315.29 73.2138 315.591 71.5237 314.833 71.7055C313.356 72.0596 312.856 71.4255 312.004 71.9332Z" fill="#CF793A"/>
<path id="path79025" d="M321.745 118.313C321.617 118.313 319.058 117.309 321.041 116.494C323.024 115.678 321.329 112.353 322.801 113.075C324.272 113.796 323.056 110.032 324.368 110.817C325.679 111.601 331.884 111.726 331.341 112.698C330.797 113.671 334.507 112.636 333.164 114.047C331.82 115.459 328.974 114.8 328.878 115.741C328.782 116.682 330.381 117.56 328.654 118.407C326.927 119.254 325.583 123.394 324.784 122.077C323.984 120.759 322.961 118.376 322.353 118.344C321.745 118.313 321.745 118.313 321.745 118.313Z" fill="#CF793A"/>
<path id="path79027" d="M320.242 105.803C320.242 105.803 319.515 104.161 318.58 104.605C317.645 105.049 320.104 101.19 318.718 101.012C317.333 100.835 318.58 102.831 317.056 102.343C315.532 101.855 318.476 99.1935 316.329 99.3266C314.181 99.4597 311.653 100.569 312.9 101.544C314.147 102.52 313.627 103.097 312.9 103.097C312.172 103.097 312.069 106.069 312.727 105.492C313.385 104.916 314.389 103.053 314.735 104.161C315.082 105.27 316.155 106.246 316.571 105.093C316.987 103.94 316.917 108.819 317.679 107.799C318.441 106.778 320.762 106.823 320.242 105.803Z" fill="#CF793A"/>
<path id="path79029" d="M322.455 102.986C321.059 101.606 319.712 102.139 322.284 101.041C324.855 99.9433 322.774 99.3787 322.529 99.5042C322.284 99.6297 323.068 95.9286 324.194 97.9046C325.321 99.8806 325.933 95.8345 326.986 98.3437C328.039 100.853 326.227 99.2533 326.349 100.382C326.472 101.512 329.313 98.8142 329.484 100.351C329.655 101.888 332.717 101.7 332.79 99.8492C332.864 97.9987 334.651 97.9359 334.749 99.0651C334.847 100.194 332.864 100.163 333.598 100.916C334.333 101.668 334.578 103.331 333.574 103.362C332.57 103.393 332.472 107.753 331.468 106.875C330.464 105.997 328.431 108.945 328.113 107.502C327.794 106.059 328.97 103.331 328.186 104.021C327.402 104.711 328.357 106.216 327.819 106.122C327.28 106.028 324.831 107.283 325.443 105.62C326.055 103.958 323.778 103.958 323.631 104.805C323.484 105.652 321.868 105.15 322.137 104.397C322.406 103.644 322.82 103.131 322.455 102.986C322.455 102.986 322.455 102.986 322.455 102.986Z" fill="#CF793A"/>
<path id="path79031" d="M336.262 90.8651C338.737 92.4499 340.139 94.0346 338.118 93.9817C336.097 93.9289 334.695 93.7704 334.942 95.2495C335.19 96.7286 332.55 98.4189 332.591 97.0983C332.632 95.7777 330.446 92.7668 330.611 94.7213C330.776 96.6757 329.993 98.4717 329.415 97.3624C328.838 96.2532 324.548 96.7814 325.414 95.8306C326.28 94.8797 327.105 93.0837 325.827 93.5063C324.548 93.9289 321.661 95.1439 321.908 93.8233C322.156 92.5027 319.475 90.02 318.774 92.3442C318.073 94.6684 317.289 96.0947 316.67 94.51C316.052 92.9253 312.381 93.3479 313.701 91.7103C315.02 90.0728 314.732 84.6848 316.588 86.5864C318.444 88.4881 317.536 85.8997 319.062 86.4808C320.589 87.0618 319.846 80.4061 321.908 82.3606C323.971 84.315 322.651 90.2313 323.806 88.1183C324.961 86.0054 323.764 82.1493 325.662 84.0509C327.559 85.9526 324.837 88.2768 326.569 87.9598C328.302 87.6429 329.621 82.1493 331.23 84.9489C332.839 87.7485 330.694 89.4389 331.931 89.4917C333.169 89.5445 335.437 85.4243 335.808 87.2203C336.179 89.0163 336.186 89.6387 336.262 90.8651C336.262 90.8651 336.262 90.8652 336.262 90.8651Z" fill="#C78800"/>
<path id="path79033" d="M323.288 80.8115C322.505 82.5366 322.799 83.0384 323.925 82.317C325.052 81.5956 326.472 83.8225 326.668 82.4425C326.864 81.0624 327.574 80.4665 328.603 81.0624C329.631 81.6584 330.929 79.8706 330.048 79.2433C329.166 78.616 331.199 77.3928 331.419 78.6473C331.64 79.9019 333.525 77.4241 331.517 76.6714C329.509 75.9186 330.758 74.5699 331.346 74.3504C331.933 74.1308 330.244 72.0607 329.999 73.2526C329.754 74.4445 329.558 70.5239 328.848 72.0921C328.137 73.6603 324.954 69.7084 325.566 72.1862C326.178 74.664 327.378 72.7194 327.354 73.4722C327.329 74.2249 325.493 75.7618 324.611 73.9426C323.729 72.1235 322.897 75.4795 323.411 75.3854C323.925 75.2913 324.121 76.7027 323.631 76.5459C323.141 76.3891 321.746 78.4905 322.48 78.8983C323.215 79.306 324.415 78.4278 324.17 79.1492C323.925 79.8706 323.102 80.1857 323.288 80.8115C323.288 80.8115 323.288 80.8115 323.288 80.8115Z" fill="#CF793A"/>
<path id="path79035" d="M314.911 66.2587C314.734 62.9317 312.242 67.4506 313.981 68.0152C315.719 68.5797 315.279 70.9321 316.479 69.7716C317.679 68.6111 317.14 68.6111 318.071 69.1757C319.001 69.7402 320.813 68.4543 320.74 67.7956C320.667 67.137 322.669 69.0974 322.209 69.5834C321.646 70.1793 322.797 71.0576 324.438 70.0225C326.079 68.9875 325.075 68.7679 326.397 69.2384C327.72 69.7089 328.577 69.0189 328.283 68.3288C327.989 67.6388 330.83 67.482 331.271 68.6738C331.712 69.8657 334.014 66.0392 332.25 66.2274C330.487 66.4156 331.295 64.6591 330.512 65.2237C329.728 65.7883 328.969 65.7255 328.65 64.4082C328.332 63.0909 327.45 62.9968 327.083 63.7496C326.716 64.5023 326.397 63.4045 326.25 62.6204C326.103 61.8363 325.124 60.3935 324.658 61.6481C324.193 62.9027 324.062 59.8694 323.336 60.3935C322.381 61.0836 323.919 62.2127 322.724 62.2127C321.94 62.2127 323.189 60.2994 321.72 60.0799C320.518 59.9003 321.524 61.0208 320.936 61.3972C320.348 61.7736 319.222 60.4563 319.442 61.3031C319.662 62.15 320.691 63.0909 319.467 62.84C318.242 62.5891 316.601 63.3732 317.238 63.7182C317.875 64.0632 316.968 66.1333 316.748 65.0982C316.528 64.0632 316.332 63.8123 315.744 64.5337C315.156 65.2551 316.307 65.851 315.671 66.0706C315.199 66.1123 314.943 66.7379 314.911 66.2587Z" fill="#E2810E"/>
<path id="path79037" d="M323.361 58.8405C321.794 58.37 322.381 57.0527 323.63 57.4291C324.879 57.8054 324.83 55.5785 325.32 56.5195C325.81 57.4604 326.569 55.359 326.937 56.2058C327.304 57.0527 327.843 57.8054 328.137 56.8018C328.431 55.7981 329.386 55.8608 329.41 56.5195C329.435 57.1781 328.529 57.1154 328.994 57.68C329.459 58.2445 330.978 55.8608 330.855 57.0213C330.733 58.1818 334.039 59.656 332.643 60.2519C331.247 60.8478 329.655 60.7537 329.949 61.7888C330.243 62.8238 330.12 64.1725 328.822 63.2943C327.524 62.4161 325.786 65.0507 325.467 63.4197C325.149 61.7888 322.724 62.1965 323.067 61.381C323.41 60.5655 321.794 59.4991 322.773 59.656C323.753 59.8128 324.365 58.8718 323.851 58.9032C323.337 58.9346 323.471 58.9963 323.361 58.8405C323.361 58.8405 323.361 58.8405 323.361 58.8405Z" fill="#CF793A"/>
<path id="path79039" d="M332.401 66.6588C331.127 66.9411 331.201 66.3765 331.96 65.6865C332.719 64.9965 332.376 63.9928 331.25 64.2437C330.123 64.4946 328.654 60.8249 329.878 61.2013C331.103 61.5777 331.788 59.0685 332.327 60.3858C332.866 61.7032 334.409 59.884 334.433 61.17C334.458 62.4559 336.49 62.3305 336.368 61.7032C336.246 61.0759 337.862 59.7899 338.156 61.2327C338.45 62.6755 341.731 61.9227 341.046 64.0242C340.36 66.1256 339.282 66.5961 338.254 65.7492C337.225 64.9024 336.686 66.2511 336.466 67.0038C336.246 67.7566 335.388 67.9761 334.825 66.8156C334.262 65.6551 334.213 65.3415 333.723 65.9374C333.233 66.5333 332.689 66.5949 332.401 66.6588Z" fill="#CF793A"/>
<path id="path79041" d="M313.1 170.076C314.667 172.397 317.998 171.958 314.52 173.777C311.042 175.596 315.793 179.924 312.561 181.116C309.328 182.308 308.397 181.681 308.348 178.858C308.299 176.035 306.879 173.965 305.116 176.537C303.352 179.109 307.124 178.482 305.214 179.423C303.303 180.363 302.569 180.489 302.177 178.042C301.785 175.596 301.638 175.408 299.728 176.286C297.818 177.164 295.467 175.596 295.956 173.463C296.446 171.33 294.487 162.862 297.916 166.061C301.344 169.26 302.128 160.729 303.646 164.43C305.165 168.131 309.083 157.969 309.475 161.733C309.867 165.497 303.695 169.323 307.516 168.759C311.336 168.194 313.393 159.788 313.589 164.117C313.785 168.445 312.056 168.591 313.1 170.076C313.1 170.076 313.1 170.076 313.1 170.076Z" fill="#D6B600"/>
<path id="path79043" d="M302.065 153.92C301.131 154.164 298.839 157.399 302.395 159.838C305.951 162.276 303.496 162.709 303.7 163.773C303.904 164.837 305.547 171.917 307.979 169.69C310.41 167.463 311.476 173.371 311.889 171.07C312.301 168.768 312.487 164.952 311.013 165.686C309.54 166.42 309.554 163.246 311.801 162.464C314.048 161.682 313.857 156.101 312.157 156.663C310.457 157.224 308.176 158.671 308.197 156.438C308.219 154.204 308.171 150.617 306.879 151.963C305.587 153.31 305.349 150.54 304.026 150.495C302.703 150.449 304.115 154.358 303.282 154.306C302.449 154.254 302.998 153.676 302.065 153.92Z" fill="#CF793A"/>
<path id="path79045" d="M314.926 144.212C313.922 142.482 313.734 137.01 318.026 138.246C319.411 138.645 319.32 139.498 320.641 138.601C322.062 137.636 322.598 137.98 324 139.089C325.638 140.384 325.801 142.438 328.572 141.64C331.235 140.872 334.737 141.019 333.144 142.882C331.551 144.745 336.469 148.737 336.954 145.543C337.439 142.349 338.062 136.494 341.456 140.486C344.85 144.478 344.227 152.108 342.911 150.422C341.595 148.737 338.755 150.511 338.131 152.463C337.508 154.414 335.153 159.382 333.352 156.543C331.551 153.705 329.957 153.616 329.68 154.947C329.403 156.277 323.793 156.809 325.178 154.148C326.563 151.487 323.793 147.406 322.684 148.293C321.576 149.18 316.312 149.091 315.827 147.761C315.342 146.43 315.931 145.942 314.926 144.212Z" fill="#E09900"/>
<path id="path79047" d="M344.276 88.4728C345.925 87.8499 345.834 87.4082 345.661 88.6502C345.488 89.8922 344.207 92.1544 342.891 91.2672C341.574 90.3801 340.189 91.3116 341.09 92.1987C341.99 93.0858 338.908 95.4367 338.804 94.5053C338.7 93.5738 339.289 91.9769 338.457 92.731C337.626 93.485 335.34 94.9932 335.687 93.2189C336.033 91.4447 335.687 90.247 334.821 90.7793C333.955 91.3116 332.708 87.7187 333.92 87.8518C335.132 87.9848 335.79 85.1904 336.414 86.2993C337.037 87.4082 338.7 86.8316 338.596 86.0332C338.492 85.2347 340.847 84.4363 340.812 85.5452C340.778 86.6541 339.635 89.0938 340.57 89.0494C341.505 89.005 340.57 86.7872 341.124 86.8316C341.678 86.8759 342.44 85.0129 343.029 85.8114C343.618 86.6098 343.146 88.8993 344.276 88.4728Z" fill="#CF793A"/>
</g>
<g id="g3994">
<path id="rect83040" d="M216.726 262.057C225.815 234.872 228.629 202.55 233.978 204.354C250.933 210.074 269.727 212.579 287.185 206.533C287.185 206.533 283.005 254.174 273.988 272.811C241.181 270.393 215.54 265.604 216.726 262.057Z" fill="#BD977C"/>
<path id="path109718" d="M216.479 263.252L215.955 256.85L213.273 257.625L215.787 263.237" fill="#6E4F37"/>
<path id="path118551" d="M299.921 262.402L301.878 256.317L304.567 256.62L300.536 262.423" fill="#6E4F37"/>
<path id="path912" d="M287.184 206.533L292.106 262.176C292.106 262.176 295.926 262.839 299.83 262.176C293.304 240.678 287.184 206.533 287.184 206.533C282.601 239.881 281.586 253.082 273.836 272.973C281.611 271.436 281.121 268.648 288.198 266.715C288.729 247.321 287.184 206.533 287.184 206.533Z" fill="#D2AB8C"/>
<path id="path109858" d="M274.496 274.103L274.354 269.25L277.758 269.246L275.21 274.128" fill="#6E4F37"/>
<path id="path1933" d="M291.961 260.605C291.961 260.605 289.494 232.653 287.184 206.533C288.052 236.313 288.483 243.197 288.3 260.066C290.277 260.357 291.961 260.605 291.961 260.605Z" fill="#A78267"/>
</g>
</g>
<defs>
<filter id="filter0_f_3304_243" x="0" y="236.093" width="414" height="118.52" filterUnits="userSpaceOnUse" color-interpolation-filters="sRGB">
<feFlood flood-opacity="0" result="BackgroundImageFix"/>
<feBlend mode="normal" in="SourceGraphic" in2="BackgroundImageFix" result="shape"/>
<feGaussianBlur stdDeviation="0.5" result="effect1_foregroundBlur_3304_243"/>
</filter>
</defs>
</svg>
