<svg xmlns="http://www.w3.org/2000/svg" width="32.375" height="33.15" viewBox="0 0 8.566 8.771" xmlns:v="https://vecta.io/nano">
    <path d="M7.7.002c-.13-.005-2.17.004-2.17.004s.984.922.977 1.05C6.49 1.388.015 7.632.015 7.632L0 8.686l1.524-1.575-.028 1.618 2.465-2.389c.091.002 2.123 2.19 2.123 2.19l-.413.009-.04.232 2.083.001-.119-.233-1.135-.004-1.403-1.485c-.092-.145-.157-.728-.001-.755.291-.051.957-.072 1.739-.436 1.332-.619 1.6-1.794 1.685-2.381.078-.534-.015-1.759.084-2.745.031-.311-.326-.711-.864-.73zm-.418.363c.086 0 .156.067.156.151s-.07.151-.156.151-.156-.067-.156-.151.07-.151.156-.151z"/>
    <style>
        path { fill: #000; }
        @media (prefers-color-scheme: dark) {
            path { fill: #FFF; }
        }
    </style>
</svg>