<svg xmlns="http://www.w3.org/2000/svg" width="457" height="469" fill="none"><g filter="url(#a)"><path fill="#8BAB2E" d="M419.605 360.187s-93.776-9.705-118.039-3.494c-24.264 6.211-39.721 24.506-97.549 12.691-57.828-11.815-109.675-1.822-125.413 4.389-15.739 6.211-43.281 34.161-60.331 38.82-17.05 4.658-24.036 25.126 48.527 22.515 118.694-4.27 126.564 24.844 215.093 14.751 40.609-4.629 80.004-44.254 118.694-46.583 38.691-2.329 74.103-31.444 19.018-43.089Z"/></g><path fill="#6E4F37" d="m160.771 130.885-1.563-.036s-1.382 47.188-1.45 115.56c-.001.65-18.465-3.79-18.457-3.431.008.36 18.488 5.519 18.487 6.163-.028 12.791-.128 24.982-.328 35.912-.007.398-26.415-12.112-26.423-11.717-.006.347 26.388 13.6 26.381 13.945-.958 19.238 3.233 75.806.159 95.974-.031.202-2.896 1.622-2.928 1.816l1.015.422s.642-.229 1.367-.475c.073-.025.731.444.731.444l.305.009s-.51-.629-.406-.663c.652-.215 1.242-.394 1.361-.385.206.017.87 2.01.87 2.01s.443.045.553.016c-.107-1.083.007-2.286.342-2.234.739.381 1.244 2.142 1.769 2.409 1.254.001 1.394.063 1.394.063s-.948-2.132.006-2.137c.487-.004 6.375 2.102 6.375 2.102s1.2-.003 1.436-.005c.049-.373-3.954-2.834-3.954-2.834s-2.118-1.918-2.579-5.826c-2.734-57.487-3.383-65.269-4.032-95.491-.01-.482 4.742-5.802 6.93-6.946 2.667-1.394 8.719-2.609 8.719-2.609s-6.354.614-9.179 1.96c-2.519 1.2-5.943 5.307-6.368 5.2-.874-.22-1.082-47.818-1.082-47.818l7.168-8.032-7.198 6.528.335-57.835 8.52-5.05-8.512 3.768.236-40.777Z"/><path fill="#3E7606" d="M159.206 228.818s-2.355-5.704-3.663-4.448c-1.308 1.256-2.198-1.309-3.977-2.25-1.779-.942-.471.784-3.402.889-2.93.105-.68-5.18-4.134-3.558-3.453 1.622-.052 3.139-1.465 3.558-1.413.419-4.762-5.965-5.756-2.721-.994 3.244-1.518 4.134-5.076 5.024-3.559.889 7.588 3.401 7.849 1.988.262-1.413 4.71-.785 4.448 1.727-.261 2.512 3.873 5.547 5.286 2.355 1.413-3.192 2.564-1.727 4.657-.838 2.093.89 5.233-1.726 5.233-1.726Z"/><path fill="url(#b)" d="M175.855 275.159c-.756-.474-3.7.259-4.847-1.924-1.147-2.183 2.997-1.776 4.292-1.073 1.295.703 2.85-2.923 5.514-3.442 2.664-.518 1.781.931 2.22.852.881-.159 2.072-1.518 2.331-1.333.259.185 1.924 3.627 2.627 3.072.703-.555 2.517-.592 2.48.74-.037 1.332-2.702 4.884-4.145 3.626-1.443-1.258-2.442-2.886-2.701-2.442-.259.444-2.621 5.149-7.771 1.924Z"/><path fill="#8F930F" d="M134.715 253.58c1.539-.837 4.386 3.774 9.108-4.947.629-1.162 6.448-1.028 6.769-4.317.567-5.811-6.428-1.583-7.321-2.428-2.02-1.913-5.35-1.796-5.857.371-.843 3.606-1.434-3.27-3.626-3.018-2.193.251-.59 3.522-1.181 3.941-.59.419-3.671-.389-3.289 3.606.169 1.761-4.365-.839-4.047 2.264.805 7.867-1.832 1.7-5.313 3.815-1.055.642.642 1.5-.026 2.162-1.817 1.803.136 3.867 1.206 3.163 2.868-1.887 6.156 2.097 6.831 1.006.675-1.09 1.623-4.885 4.975-3.522.928.378.966-1.658 1.771-2.096Z"/><path fill="url(#c)" d="M184.078 223.992c-2.246-.336-3.257-.666-3.849 3.552-.763 5.439-.559 4.608-3.848 4.514-2.076-.059-2.961 1.615-4.292.518-1.563-1.288-4.053-3.77-5.921-3.7-1.849.069-7.484 3.493-3.7-2.886 2.59-4.367 4.763-.903 11.175-6.439 6.834-5.9 6.586-2.516 8.436-2.072 1.624.39 11.397 7.919 1.999 6.513Z"/><path fill="url(#d)" d="M156.004 207.695c-1.343-.287-3.534-3.789-5.126-2.12-2.017 2.113-3.34-2.646-5.014-.03-1.638 2.561-.894 2.364-2.073 2.92-.633.299-2.381-1.543-3.916 1.259-.639 1.167-2.779-.647-2.844 1.045-.056 1.429 2.323 3.008 3.563 3.806 4.39 2.827 6.146 1.026 6.837 1.074 1.394.096 6.698 2.156 7.769-.523 1.072-2.68 5.413 1.314 6.752-.556 1.34-1.871-1.734-3.297-2.143-3.906-1.573-2.34.182-2.118-3.805-2.969Z"/><path fill="#639509" d="M146.391 161.493c-1.565.728-.085.955.229 3.017s-2.045-.842-1.976.673c.069 1.515 3.384 3.507 4.228 2.386.845-1.12 2.493-.289 2.784 1.362.291 1.651 4.157 1.995 3.058.356-1.099-1.638-.784-2.184.951-1.275 1.735.909 6.983.284 5.427-.949-1.555-1.233-2.75-.58-3.104-2.178-.354-1.597-1.366-2.758-2.917-3.03-.809-.141-1.359-.016-1.419.592-.123 1.23-.023 1.618-1.159 1.087-1.136-.53-.682-2.524-1.827-2.309-2.231.417-2.986-.331-4.275.268Z"/><path fill="#396103" d="M161.11 216.209c-.194 0-4.06-1.184-1.063-2.146 2.996-.962.434-4.885 2.658-4.034 2.223.852.386-3.589 2.368-2.664 1.981.925 11.357 1.073 10.535 2.22-.822 1.147 4.784-.074 2.755 1.592-2.03 1.665-6.331.888-6.476 1.998-.145 1.11 2.271 2.146-.338 3.145-2.61.999-4.64 5.883-5.848 4.329-1.208-1.554-2.755-4.366-3.673-4.403l-.918-.037Z"/><path fill="#6E9223" d="M158.84 201.45s-1.099-1.936-2.512-1.413c-1.413.523 2.303-4.029.21-4.239-2.094-.209-.21 2.146-2.512 1.57-2.303-.575 2.145-3.715-1.099-3.558-3.245.157-7.065 1.465-5.181 2.616 1.884 1.152 1.099 1.832 0 1.832s-1.256 3.506-.261 2.826c.994-.681 2.511-2.878 3.035-1.57.523 1.308 2.145 2.459 2.773 1.099.628-1.361.524 4.395 1.675 3.192 1.151-1.204 4.657-1.152 3.872-2.355Z"/><path fill="#397102" d="M162.183 198.128c-2.109-1.629-4.144-1-.259-2.295 3.885-1.295.74-1.961.37-1.813-.37.148.814-4.218 2.516-1.887s2.627-2.442 4.218.518c1.592 2.96-1.147 1.073-.962 2.405.185 1.332 4.478-1.85 4.737-.037.259 1.813 4.884 1.591 4.995-.592.111-2.183 2.812-2.257 2.96-.925.148 1.332-2.849 1.295-1.739 2.183 1.11.888 1.48 2.85-.037 2.887-1.517.037-1.665 5.18-3.182 4.144-1.517-1.036-4.588 2.442-5.069.74-.481-1.702 1.295-4.921.111-4.107-1.185.814.259 2.59-.555 2.479-.815-.111-4.515 1.369-3.59-.592.925-1.961-2.516-1.961-2.738-.962-.222.999-2.664.407-2.257-.481.407-.888 1.033-1.494.481-1.665Z"/><path fill="url(#e)" d="M166.71 181.707c3.739 1.87 5.858 3.739 2.804 3.677-3.054-.063-5.172-.25-4.798 1.495.373 1.745-3.615 3.739-3.553 2.182.063-1.558-3.24-5.111-2.991-2.805.249 2.306-.935 4.425-1.807 3.116-.873-1.309-7.354-.685-6.045-1.807 1.309-1.122 2.555-3.241.623-2.742-1.932.498-6.294 1.932-5.92.374.374-1.558-3.677-4.487-4.737-1.745-1.059 2.742-2.243 4.424-3.178 2.555-.935-1.87-6.481-1.371-4.487-3.303 1.994-1.932 1.558-8.288 4.363-6.045 2.804 2.244 1.433-.81 3.739-.124 2.305.685 1.184-7.167 4.3-4.861 3.116 2.306 1.121 9.285 2.866 6.793 1.745-2.493-.062-7.042 2.805-4.799 2.866 2.243-1.247 4.985 1.371 4.612 2.617-.374 4.611-6.855 7.042-3.553 2.43 3.303-.81 5.297 1.059 5.36 1.87.062 5.297-4.799 5.858-2.68.561 2.119.571 2.853.686 4.3Z"/><path fill="#5F9204" d="M163.441 171.967c-1.184 2.035-.74 2.627.962 1.776 1.702-.851 3.849 1.776 4.145.148.296-1.628 1.369-2.331 2.923-1.628 1.554.703 3.515-1.406 2.183-2.146-1.332-.74 1.739-2.183 2.072-.703.333 1.48 3.182-1.443.148-2.332-3.034-.888-1.147-2.479-.259-2.738.888-.259-1.665-2.701-2.035-1.295-.37 1.406-.666-3.219-1.739-1.369-1.073 1.85-5.884-2.812-4.959.111.925 2.923 2.739.629 2.702 1.517-.037.888-2.813 2.701-4.145.555-1.332-2.146-2.59 1.813-1.813 1.702.777-.111 1.073 1.554.333 1.369-.74-.185-2.849 2.295-1.739 2.776 1.11.481 2.923-.555 2.553.296-.37.851-1.614 1.222-1.332 1.961Z"/><path fill="#AAB712" d="M150.786 154.798c-.267-3.925-4.033 1.406-1.406 2.072 2.627.666 1.961 3.441 3.774 2.072 1.813-1.369.999-1.369 2.406-.703 1.406.666 4.144-.851 4.033-1.628-.111-.777 2.914 1.536 2.22 2.109-.851.703.888 1.739 3.367.518s.962-1.48 2.961-.925c1.998.555 3.293-.259 2.849-1.073-.444-.814 3.848-.999 4.514.407.666 1.406 4.144-3.108 1.48-2.886-2.664.222-1.443-1.85-2.627-1.184-1.184.666-2.331.592-2.812-.962-.481-1.554-1.813-1.665-2.368-.777-.555.888-1.037-.407-1.259-1.332-.222-.925-1.702-2.627-2.405-1.147-.703 1.48-.902-2.099-1.998-1.48-1.443.814.882 2.146-.925 2.146-1.184 0 .703-2.257-1.517-2.516-1.816-.212-.296 1.11-1.184 1.554-.888.444-2.59-1.11-2.257-.111.333.999 1.887 2.109.037 1.813-1.85-.296-4.33.629-3.368 1.036.962.407-.407 2.849-.74 1.628-.333-1.221-.629-1.517-1.517-.666-.888.851.851 1.554-.111 1.813-.712.049-1.099.787-1.147.222Z"/><path fill="#96AC0B" d="M148.529 137.296c-2.368-.555-1.48-2.109.407-1.665 1.887.444 1.813-2.183 2.553-1.073.74 1.11 1.887-1.369 2.442-.37.555.999 1.369 1.887 1.813.703.444-1.184 1.887-1.11 1.924-.333.037.777-1.332.703-.629 1.369.703.666 2.998-2.146 2.813-.777-.185 1.369 4.81 3.108 2.701 3.811-2.109.703-4.515.592-4.07 1.813.444 1.221.259 2.812-1.703 1.776-1.961-1.036-4.588 2.072-5.069.148-.481-1.924-4.144-1.443-3.626-2.405.518-.962-1.924-2.22-.444-2.035 1.48.185 2.405-.925 1.628-.888-.777.037-.574.11-.74-.074Z"/><path fill="#E9EF87" d="M161.036 132.856c-1.924.333-1.813-.333-.666-1.147 1.147-.815.629-1.999-1.073-1.703-1.703.296-3.923-4.033-2.073-3.589 1.851.444 2.887-2.516 3.701-.962.814 1.554 3.145-.592 3.182.925.037 1.517 3.108 1.369 2.923.629-.185-.74 2.257-2.257 2.701-.555.444 1.702 5.403.814 4.367 3.293-1.036 2.48-2.664 3.035-4.219 2.036-1.554-1-2.368.592-2.701 1.48-.333.888-1.628 1.147-2.479-.222-.851-1.369-.925-1.739-1.665-1.036-.74.703-1.563.775-1.998.851Z"/><path fill="url(#f)" d="M148.048 277.275c2.368 2.738 7.4 2.22 2.146 4.366-5.254 2.146 1.924 7.252-2.96 8.658-4.885 1.406-6.291.666-6.365-2.664-.074-3.33-2.22-5.772-4.884-2.738-2.664 3.034 3.034 2.294.148 3.404-2.886 1.11-3.997 1.258-4.589-1.628-.592-2.886-.814-3.108-3.7-2.072s-6.438-.814-5.698-3.33c.74-2.516-2.221-12.507 2.96-8.733 5.18 3.775 6.364-6.29 8.659-1.924 2.294 4.367 8.214-7.622 8.806-3.182.592 4.44-8.732 8.955-2.96 8.289 5.772-.666 8.881-10.583 9.177-5.477.296 5.107-2.317 5.279-.74 7.031Z"/><path fill="url(#g)" d="M131.374 258.216c-1.41.288-4.873 4.105.5 6.981 5.372 2.877 1.662 3.388 1.971 4.643.309 1.255 2.791 9.608 6.465 6.98 3.674-2.627 5.284 4.343 5.907 1.628.624-2.715.905-7.218-1.322-6.351-2.226.866-2.205-2.879 1.19-3.802 3.396-.922 3.107-7.506.538-6.843-2.569.662-6.015 2.369-5.982-.266.032-2.635-.04-6.867-1.993-5.279-1.952 1.589-2.311-1.678-4.31-1.732-1.999-.054.135 4.557-1.124 4.496-1.259-.061-.429-.743-1.84-.455Z"/><path fill="url(#h)" d="M150.807 246.763c-1.517-2.041-1.801-8.498 4.684-7.039 2.093.471 1.955 1.477 3.951.419 2.147-1.138 2.956-.733 5.076.576 2.474 1.527 2.721 3.95 6.907 3.009 4.024-.906 9.315-.733 6.908 1.465-2.407 2.198 5.024 6.907 5.756 3.139.733-3.767 1.675-10.675 6.803-5.965 5.129 4.71 4.187 13.71 2.198 11.722-1.989-1.989-6.28.104-7.222 2.407-.941 2.302-4.5 8.163-7.221 4.814s-5.128-3.454-5.547-1.884c-.419 1.57-8.896 2.198-6.803-.942 2.093-3.139-2.093-7.954-3.768-6.907-1.674 1.046-9.628.942-10.361-.628-.733-1.57.157-2.146-1.361-4.186Z"/><path fill="#ABB313" d="M145.234 188.263c2.492-.735 2.355-1.256 2.093.209-.261 1.465-2.198 4.134-4.186 3.088-1.989-1.047-4.082.052-2.721 1.099 1.36 1.046-3.297 3.82-3.454 2.721-.157-1.099.733-2.983-.523-2.093-1.256.889-4.71 2.668-4.187.575.524-2.093 0-3.506-1.308-2.878-1.308.628-3.192-3.611-1.361-3.454 1.832.157 2.826-3.139 3.768-1.831.942 1.308 3.454.628 3.297-.314-.157-.942 3.401-1.884 3.349-.576-.052 1.308-1.779 4.187-.366 4.134 1.413-.052 0-2.669.837-2.616.837.052 1.989-2.146 2.878-1.204.89.942.177 3.643 1.884 3.14Z"/><path fill="#6E4F37" d="m230.182 79.753 2.06-.047s1.82 62.161 1.91 152.228c.001.856 24.324-4.993 24.313-4.519-.01.473-24.355 7.27-24.353 8.118.036 16.85.169 32.909.432 47.308.009.524 34.797-15.955 34.807-15.436.009.458-34.76 17.915-34.751 18.37 1.274 25.596-2.142 123.978 1.377 127.015l6.241 5.387-3.852-.136s-2.977-1.788-5.889-3.218c-.83-.408-1.844 2.788-1.844 2.788l-2.521.321s.571-4.962-.897-3.898c-1.327.962-3.636 3.31-3.636 3.31l-1.863-.68s1.789-3.13 1.901-3.386c5.347-12.292 5.716-102.096 5.715-104.912-.001-.889-14.779-7.376-14.779-7.376l-.257-1.035s10.797 4.815 12.275 5.284c2.943.935 2.549-.426 2.549-.426s.479-24.608.495-25.341c.014-.636-6.247-7.644-9.129-9.15-3.514-1.837-11.486-3.438-11.486-3.438s8.371.81 12.092 2.582c3.318 1.581 7.829 6.991 8.388 6.85 1.152-.29 1.426-62.99 1.426-62.99l-9.443-10.581 9.482 8.599-.442-76.187-11.223-6.653 11.214 4.964-.312-53.715Z"/><path fill="#3E7606" d="M232.244 208.761s3.102-7.514 4.825-5.86c1.723 1.655 2.895-1.723 5.239-2.964 2.344-1.241.621 1.034 4.481 1.172 3.86.138.896-6.824 5.446-4.687 4.55 2.136.069 4.136 1.93 4.687 1.861.551 6.273-7.858 7.583-3.585 1.31 4.274 1.999 5.446 6.687 6.618 4.687 1.172-9.996 4.481-10.341 2.62-.344-1.862-6.204-1.034-5.859 2.274.344 3.309-5.101 7.307-6.963 3.102-1.861-4.205-3.377-2.274-6.135-1.103-2.757 1.172-6.893-2.274-6.893-2.274Z"/><path fill="url(#i)" d="M210.312 269.807c.997-.625 4.874.341 6.385-2.535 1.512-2.876-3.948-2.34-5.654-1.413-1.706.926-3.753-3.851-7.263-4.534-3.509-.682-2.347 1.226-2.924 1.121-1.161-.209-2.73-1.998-3.071-1.754-.342.243-2.535 4.777-3.461 4.045-.926-.731-3.315-.779-3.266.975.048 1.755 3.558 6.434 5.459 4.777 1.901-1.657 3.217-3.802 3.559-3.217.341.585 3.453 6.783 10.236 2.535Z"/><path fill="#8F930F" d="M260.606 218.438c-2.027 1.103-5.777-4.971-11.998 6.518-.828 1.53-8.494 1.353-8.917 5.686-.746 7.655 8.468 2.085 9.644 3.199 2.661 2.519 7.048 2.365 7.716-.49 1.111-4.75 1.888 4.308 4.777 3.977 2.888-.332.777-4.64 1.555-5.192.778-.552 4.836.512 4.332-4.75-.222-2.32 5.751 1.105 5.333-2.983-1.061-10.363 2.413-2.239 6.998-5.026 1.39-.845-.845-1.975.035-2.848 2.393-2.374-.181-5.094-1.59-4.166-3.777 2.485-8.11-2.762-8.998-1.326-.889 1.436-2.138 6.436-6.554 4.64-1.222-.497-1.273 2.184-2.333 2.761Z"/><path fill="url(#j)" d="M221.985 208.642c-2.958-.442-4.289-.877-5.069 4.68-1.006 7.164-.737 6.07-5.07 5.946-2.734-.078-3.9 2.128-5.654.683-2.058-1.697-5.339-4.966-7.799-4.875-2.436.091-9.86 4.602-4.874-3.802 3.412-5.751 6.273-1.189 14.72-8.481 9.004-7.772 8.677-3.315 11.114-2.73 2.139.514 15.013 10.431 2.632 8.579Z"/><path fill="url(#k)" d="M236.462 180.935c1.769-.378 4.655-4.991 6.753-2.792 2.657 2.783 4.4-3.485 6.604-.04 2.158 3.374 1.179 3.114 2.732 3.847.834.393 3.137-2.033 5.158 1.658.842 1.537 3.661-.853 3.747 1.377.073 1.883-3.06 3.962-4.694 5.014-5.783 3.723-8.096 1.351-9.007 1.414-1.836.127-8.823 2.84-10.234-.689-1.412-3.53-7.13 1.731-8.895-.733-1.764-2.464 2.285-4.343 2.824-5.144 2.072-3.083-.24-2.791 5.012-3.912Z"/><path fill="#639509" d="M249.125 120.073c2.062.959.112 1.258-.302 3.975-.414 2.716 2.694-1.11 2.603.886-.09 1.995-4.457 4.62-5.57 3.143-1.113-1.476-3.284-.38-3.667 1.795-.383 2.174-5.476 2.627-4.028.469 1.448-2.159 1.032-2.878-1.253-1.68-2.286 1.198-9.198.374-7.149-1.251 2.048-1.624 3.623-.763 4.089-2.868.467-2.105 1.8-3.633 3.843-3.992 1.066-.186 1.79-.021 1.869.78.162 1.62.031 2.131 1.527 1.432 1.496-.699.898-3.325 2.407-3.043 2.938.551 3.933-.435 5.631.354Z"/><path fill="#396103" d="M229.736 192.151c.255 0 5.348-1.56 1.4-2.827-3.947-1.267-.573-6.434-3.501-5.313-2.929 1.121-.509-4.728-3.12-3.51-2.61 1.219-14.96 1.414-13.878 2.925 1.082 1.511-6.303-.097-3.629 2.096s8.34 1.17 8.531 2.632c.191 1.462-2.992 2.827.446 4.143 3.437 1.316 6.111 7.751 7.703 5.703 1.591-2.047 3.629-5.751 4.838-5.8l1.21-.049Z"/><path fill="#6E9223" d="M232.726 172.709s1.448-2.551 3.309-1.862c1.861.69-3.033-5.308-.276-5.583 2.758-.276.276 2.826 3.309 2.068 3.033-.759-2.826-4.895 1.448-4.688 4.274.207 9.306 1.93 6.824 3.447-2.481 1.516-1.447 2.413 0 2.413 1.448 0 1.655 4.618.345 3.722-1.31-.896-3.309-3.791-3.998-2.068-.69 1.723-2.827 3.24-3.654 1.448-.827-1.793-.689 5.79-2.206 4.205-1.516-1.586-6.135-1.517-5.101-3.102Z"/><path fill="#397102" d="M228.322 168.332c2.779-2.145 5.46-1.316.342-3.022-5.119-1.706-.975-2.584-.488-2.389.488.195-1.072-5.556-3.314-2.486-2.243 3.071-3.461-3.217-5.557.683-2.096 3.899 1.511 1.413 1.267 3.168-.244 1.755-5.898-2.437-6.239-.049-.341 2.389-6.434 2.096-6.581-.779-.146-2.876-3.704-2.974-3.899-1.219-.195 1.755 3.753 1.706 2.291 2.876-1.463 1.17-1.95 3.753.048 3.802 1.999.049 2.194 6.824 4.192 5.459 1.999-1.365 6.045 3.217 6.678.975.634-2.242-1.706-6.483-.146-5.411 1.56 1.073-.341 3.412.731 3.266 1.073-.146 5.947 1.804 4.729-.78-1.219-2.583 3.314-2.583 3.607-1.267.292 1.316 3.509.536 2.973-.634-.536-1.169-1.36-1.967-.634-2.193Z"/><path fill="url(#l)" d="M222.36 146.701c-4.926 2.463-7.717 4.926-3.695 4.844 4.023-.082 6.814-.329 6.322 1.97-.493 2.299 4.761 4.926 4.679 2.873-.082-2.052 4.269-6.731 3.94-3.694-.328 3.038 1.232 5.829 2.381 4.105 1.149-1.724 9.687-.903 7.963-2.381-1.724-1.478-3.366-4.269-.821-3.612s8.292 2.545 7.799.493c-.492-2.053 4.844-5.911 6.239-2.299 1.396 3.612 2.956 5.829 4.187 3.366 1.231-2.463 8.538-1.806 5.911-4.351-2.627-2.545-2.053-10.918-5.747-7.963-3.694 2.955-1.888-1.067-4.925-.164-3.038.903-1.56-9.441-5.665-6.403-4.105 3.037-1.478 12.231-3.776 8.948-2.299-3.284.082-9.277-3.694-6.321-3.777 2.955 1.642 6.567-1.806 6.074-3.448-.492-6.075-9.03-9.277-4.679-3.202 4.351 1.067 6.978-1.396 7.06-2.462.082-6.978-6.321-7.716-3.53-.739 2.791-.752 3.758-.903 5.664Z"/><path fill="#5F9204" d="M226.665 133.87c1.56 2.681.975 3.461-1.267 2.339-2.243-1.121-5.07 2.34-5.46.195-.39-2.144-1.803-3.07-3.85-2.144-2.048.926-4.631-1.853-2.876-2.827 1.754-.975-2.291-2.876-2.73-.927-.439 1.95-4.192-1.901-.195-3.07 3.997-1.17 1.511-3.266.341-3.607-1.17-.342 2.194-3.559 2.681-1.706.488 1.852.878-4.241 2.291-1.804 1.414 2.437 7.75-3.704 6.532.146-1.219 3.851-3.607.829-3.558 1.999.048 1.17 3.704 3.558 5.459.731 1.755-2.827 3.412 2.388 2.388 2.242-1.023-.146-1.413 2.047-.438 1.804.975-.244 3.753 3.022 2.291 3.655-1.463.634-3.851-.731-3.364.39.488 1.121 2.126 1.611 1.755 2.584Z"/><path fill="#AAB712" d="M243.335 111.253c.353-5.17 5.314 1.852 1.853 2.73-3.461.877-2.584 4.533-4.972 2.729-2.389-1.803-1.316-1.803-3.169-.926-1.852.878-5.459-1.121-5.313-2.144.146-1.024-3.839 2.023-2.924 2.778 1.121.926-1.17 2.291-4.436.682-3.266-1.608-1.268-1.949-3.9-1.218-2.632.731-4.338-.341-3.753-1.414.585-1.072-5.069-1.316-5.947.536-.877 1.853-5.459-4.094-1.95-3.802 3.51.293 1.901-2.437 3.461-1.559 1.56.877 3.071.779 3.705-1.268.633-2.047 2.388-2.193 3.119-1.023.732 1.169 1.365-.537 1.658-1.755.292-1.219 2.242-3.461 3.168-1.511.926 1.95 1.188-2.765 2.632-1.95 1.901 1.072-1.161 2.827 1.219 2.827 1.56 0-.926-2.973 1.998-3.314 2.392-.279.39 1.462 1.56 2.047 1.17.585 3.412-1.462 2.974-.146-.439 1.316-2.486 2.778-.049 2.388 2.437-.39 5.703.829 4.436 1.365-1.268.536.536 3.753.975 2.145.438-1.609.828-1.999 1.998-.878s-1.121 2.047.146 2.389c.939.064 1.449 1.037 1.511.292Z"/><path fill="#96AC0B" d="M246.31 88.198c3.119-.732 1.949-2.779-.537-2.194s-2.388-2.876-3.363-1.413c-.975 1.462-2.486-1.804-3.217-.488-.731 1.316-1.804 2.486-2.389.926-.585-1.56-2.486-1.462-2.534-.438-.049 1.023 1.755.926.828 1.803-.926.877-3.948-2.827-3.704-1.024.244 1.804-6.337 4.095-3.559 5.021 2.779.926 5.947.78 5.362 2.388-.585 1.609-.341 3.705 2.243 2.34 2.583-1.365 6.044 2.73 6.678.195.633-2.535 5.459-1.9 4.777-3.168-.683-1.268 2.534-2.925.584-2.681-1.949.244-3.168-1.219-2.144-1.17 1.023.049.755.145.975-.097Z"/><path fill="#E9EF87" d="M229.834 82.348c2.534.439 2.388-.438.877-1.51-1.511-1.073-.828-2.633 1.414-2.243 2.242.39 5.167-5.313 2.729-4.728-2.437.585-3.802-3.315-4.874-1.267-1.072 2.047-4.143-.78-4.192 1.218-.049 1.999-4.095 1.804-3.851.829.244-.975-2.973-2.974-3.558-.731-.585 2.242-7.117 1.072-5.752 4.338 1.365 3.266 3.51 3.997 5.557 2.68 2.047-1.315 3.12.78 3.558 1.95.439 1.17 2.145 1.511 3.266-.292s1.219-2.29 2.194-1.365c.974.926 2.058 1.022 2.632 1.121Z"/><path fill="url(#m)" d="M246.943 272.594c-3.12 3.607-9.749 2.924-2.827 5.752 6.921 2.827-2.535 9.553 3.899 11.405 6.435 1.853 8.287.878 8.384-3.509.098-4.387 2.925-7.604 6.435-3.607 3.509 3.997-3.997 3.022-.195 4.484 3.802 1.463 5.264 1.658 6.044-2.144.78-3.802 1.072-4.095 4.874-2.73 3.803 1.365 8.482-1.072 7.507-4.387-.975-3.314 2.925-16.475-3.899-11.503-6.825 4.972-8.385-8.287-11.407-2.535-3.022 5.752-10.821-10.041-11.601-4.192-.78 5.849 11.504 11.796 3.9 10.919-7.604-.878-11.699-13.941-12.089-7.214-.39 6.726 3.052 6.954.975 9.261Z"/><path fill="url(#n)" d="M268.907 247.487c1.858.38 6.419 5.407-.658 9.197-7.078 3.789-2.19 4.462-2.597 6.115-.406 1.654-3.676 12.657-8.516 9.196-4.84-3.461-6.96 5.721-7.782 2.144-.822-3.576-1.191-9.508 1.742-8.367 2.932 1.141 2.904-3.792-1.568-5.007-4.473-1.215-4.093-9.888-.709-9.015 3.384.872 7.924 3.121 7.881-.35-.043-3.471.053-9.047 2.625-6.954 2.572 2.093 3.044-2.211 5.678-2.282 2.633-.071-.178 6.003 1.48 5.923 1.658-.081.566-.979 2.424-.6Z"/><path fill="url(#o)" d="M243.308 243.297c1.999 2.688 2.372 11.193-6.17 9.271-2.757-.62-2.575-1.945-5.205-.551-2.828 1.499-3.894.965-6.686-.759-3.26-2.012-3.585-5.204-9.1-3.963-5.3 1.192-12.27.965-9.099-1.93 3.171-2.896-6.618-9.1-7.583-4.136-.965 4.963-2.206 14.062-8.962 7.858-6.755-6.204-5.514-18.061-2.895-15.441 2.62 2.619 8.272-.138 9.513-3.171 1.241-3.033 5.929-10.754 9.513-6.342 3.585 4.412 6.756 4.55 7.307 2.482.552-2.068 11.719-2.896 8.962 1.241-2.757 4.136 2.757 10.477 4.963 9.099 2.206-1.379 12.684-1.241 13.649.827.966 2.068-.206 2.826 1.793 5.515Z"/><path fill="#ABB313" d="M250.649 155.337c-3.282-.968-3.102-1.655-2.757.276.345 1.93 2.895 5.445 5.515 4.067 2.619-1.379 5.377.069 3.584 1.447-1.792 1.379 4.343 5.032 4.55 3.585.207-1.448-.965-3.929.689-2.758 1.655 1.172 6.205 3.516 5.515.759-.689-2.758 0-4.619 1.724-3.792 1.723.828 4.205-4.756 1.792-4.549-2.413.207-3.723-4.136-4.963-2.413-1.241 1.723-4.55.827-4.343-.413.206-1.241-4.481-2.482-4.412-.759.069 1.724 2.344 5.515.482 5.446-1.861-.069 0-3.516-1.103-3.447-1.103.069-2.619-2.826-3.791-1.585-1.172 1.241-.233 4.799-2.482 4.136Z"/><path fill="#666" d="M280.154 34.017c3.029-4.43 8.607-5.615 12.911-1.189 0 0 6.066-10.205 13.32-1.967 0 0-9.222-5.369-12.91 8.566-2.91-8.443-6.874-8.29-13.321-5.41ZM319.214 5.41c4.34-3.897 8.361-4.181 12.009-.083 0 0 7.09-9.672 14.673-2.95 0 0-9.632-5.616-13.157 10.655-4.467-5.82-4.537-9.437-13.525-7.623Z"/><path fill="#6E4F37" d="m362.586 107.972-1.586-.036s-1.402 47.88-1.472 117.253c0 .659-18.735-3.846-18.727-3.481.008.365 18.759 5.6 18.758 6.253-.028 12.978-.13 25.348-.333 36.439-.007.404-26.802-12.29-26.81-11.889-.006.352 26.774 13.799 26.767 14.149-.982 19.715 3.366 78.068.066 97.983 0 0 2.667.054 7.568 0 1.078-8.071-3.577-78.413-3.576-80.583 0-.684 11.383-5.681 11.383-5.681l.198-.797s-8.316 3.709-9.455 4.07c-2.266.72-1.963-.328-1.963-.328l-.381-19.519c-.011-.49 4.812-5.888 7.031-7.048 2.707-1.414 8.847-2.648 8.847-2.648s-6.447.624-9.313 1.989c-2.556 1.218-6.031 5.385-6.461 5.276-.888-.223-1.099-48.518-1.099-48.518l7.273-8.15-7.302 6.624.339-58.683 8.645-5.124-8.637 3.823.24-41.374Z"/><path fill="#3E7606" d="M360.999 207.339s-2.39-5.787-3.717-4.513c-1.328 1.274-2.23-1.327-4.036-2.283-1.805-.956-.478.796-3.451.903-2.973.106-.69-5.257-4.195-3.611-3.504 1.646-.053 3.186-1.486 3.611-1.434.424-4.832-6.053-5.841-2.761-1.009 3.292-1.54 4.194-5.15 5.097-3.611.903 7.699 3.451 7.964 2.018.266-1.434 4.779-.797 4.513 1.752-.265 2.548 3.93 5.628 5.363 2.389 1.434-3.239 2.602-1.752 4.726-.85 2.124.903 5.31-1.752 5.31-1.752Z"/><path fill="url(#p)" d="M377.892 254.36c-.768-.481-3.755.263-4.919-1.953-1.164-2.215 3.041-1.802 4.356-1.088 1.314.713 2.891-2.966 5.594-3.492 2.703-.526 1.807.944 2.252.863.894-.161 2.103-1.539 2.366-1.351.263.188 1.952 3.679 2.666 3.116.713-.563 2.553-.601 2.515.751-.037 1.352-2.741 4.956-4.205 3.679-1.464-1.276-2.478-2.928-2.741-2.478-.263.451-2.66 5.225-7.884 1.953Z"/><path fill="#8F930F" d="M336.149 232.465c1.561-.85 4.449 3.828 9.241-5.02.638-1.179 6.542-1.043 6.868-4.381.575-5.896-6.522-1.605-7.428-2.463-2.05-1.941-5.429-1.822-5.943.377-.856 3.659-1.455-3.318-3.679-3.063-2.225.255-.599 3.574-1.198 3.999-.599.425-3.726-.395-3.337 3.659.171 1.787-4.43-.851-4.108 2.297.817 7.982-1.858 1.725-5.39 3.871-1.071.651.651 1.522-.027 2.194-1.843 1.829.139 3.924 1.225 3.209 2.909-1.914 6.246 2.127 6.93 1.021.685-1.106 1.647-4.957 5.049-3.573.941.383.98-1.683 1.797-2.127Z"/><path fill="url(#q)" d="M386.234 202.443c-2.279-.341-3.304-.676-3.905 3.604-.774 5.519-.568 4.676-3.904 4.58-2.107-.06-3.005 1.639-4.356.526-1.585-1.307-4.112-3.825-6.007-3.755-1.876.07-7.594 3.545-3.755-2.928 2.629-4.43 4.833-.916 11.339-6.533 6.935-5.986 6.683-2.553 8.56-2.102 1.648.395 11.564 8.034 2.028 6.608Z"/><path fill="url(#r)" d="M357.75 185.906c-1.363-.291-3.586-3.844-5.202-2.15-2.046 2.144-3.389-2.685-5.087-.03-1.662 2.598-.908 2.398-2.104 2.962-.642.303-2.416-1.566-3.973 1.277-.649 1.185-2.82-.656-2.886 1.061-.056 1.45 2.357 3.052 3.615 3.862 4.455 2.868 6.237 1.041 6.938 1.089 1.414.098 6.796 2.188 7.883-.531 1.087-2.718 5.492 1.334 6.851-.564 1.359-1.898-1.76-3.345-2.175-3.962-1.596-2.375.185-2.15-3.86-3.014Z"/><path fill="#639509" d="M347.995 139.028c-1.588.738-.086.969.233 3.061.318 2.093-2.075-.854-2.005.683.069 1.537 3.433 3.558 4.29 2.421.857-1.137 2.529-.293 2.825 1.382.295 1.675 4.217 2.024 3.102.361-1.116-1.662-.795-2.216.965-1.293 1.761.922 7.085.287 5.507-.964-1.578-1.251-2.791-.588-3.15-2.209s-1.386-2.798-2.96-3.074c-.821-.144-1.378-.017-1.44.6-.124 1.248-.023 1.641-1.176 1.103-1.152-.538-.691-2.561-1.854-2.343-2.263.423-3.029-.336-4.337.272Z"/><path fill="#396103" d="M362.93 194.546c-.196 0-4.119-1.202-1.079-2.178s.441-4.956 2.697-4.092c2.256.863.392-3.642 2.403-2.703 2.01.938 11.523 1.089 10.69 2.252-.834 1.164 4.854-.075 2.795 1.615-2.06 1.689-6.424.901-6.571 2.027-.147 1.127 2.305 2.178-.343 3.191-2.648 1.014-4.708 5.97-5.934 4.393s-2.795-4.43-3.726-4.468l-.932-.037Z"/><path fill="#6E9223" d="M360.627 179.57s-1.115-1.964-2.549-1.433c-1.434.531 2.336-4.089.212-4.301-2.124-.212-.212 2.177-2.548 1.593-2.337-.584 2.177-3.77-1.115-3.611-3.292.16-7.168 1.487-5.257 2.655 1.912 1.168 1.115 1.858 0 1.858s-1.274 3.558-.265 2.868c1.008-.691 2.548-2.921 3.079-1.593.531 1.327 2.177 2.495 2.814 1.115.638-1.381.531 4.46 1.699 3.239 1.169-1.222 4.726-1.169 3.93-2.39Z"/><path fill="#397102" d="M364.018 176.199c-2.14-1.652-4.205-1.014-.262-2.328 3.942-1.314.751-1.99.375-1.839-.375.15.826-4.28 2.553-1.915 1.727 2.365 2.666-2.478 4.28.526 1.615 3.003-1.164 1.088-.976 2.44.188 1.351 4.543-1.877 4.806-.038.263 1.84 4.956 1.615 5.069-.6.112-2.215 2.853-2.291 3.003-.939.15 1.352-2.891 1.314-1.764 2.215 1.126.901 1.501 2.891-.038 2.929-1.539.037-1.69 5.256-3.229 4.205-1.539-1.052-4.655 2.478-5.144.75-.488-1.727 1.314-4.993.113-4.167-1.201.826.263 2.628-.563 2.516-.826-.113-4.581 1.389-3.642-.601.939-1.99-2.553-1.99-2.778-.976-.226 1.013-2.704.413-2.291-.488.413-.901 1.048-1.516.488-1.69Z"/><path fill="url(#s)" d="M368.612 159.539c3.793 1.896 5.943 3.793 2.845 3.73-3.098-.063-5.248-.253-4.869 1.518.38 1.77-3.667 3.794-3.604 2.213.063-1.581-3.288-5.185-3.035-2.846.253 2.34-.949 4.49-1.834 3.162-.885-1.328-7.461-.696-6.134-1.834 1.328-1.138 2.593-3.288.633-2.782-1.96.506-6.387 1.96-6.007.379.379-1.58-3.731-4.552-4.806-1.77-1.075 2.782-2.276 4.489-3.225 2.592-.948-1.896-6.576-1.391-4.553-3.351 2.024-1.96 1.581-8.409 4.427-6.133 2.845 2.276 1.454-.822 3.794-.127 2.339.696 1.201-7.271 4.363-4.932 3.161 2.34 1.138 9.422 2.908 6.893 1.771-2.53-.063-7.146 2.846-4.869 2.909 2.276-1.265 5.058 1.391 4.679 2.656-.38 4.679-6.956 7.145-3.604 2.466 3.351-.822 5.374 1.075 5.438 1.897.063 5.375-4.869 5.944-2.719.569 2.149.579 2.894.696 4.363Z"/><path fill="#5F9204" d="M365.295 149.655c-1.201 2.065-.751 2.665.976 1.802 1.728-.864 3.905 1.802 4.205.15.301-1.652 1.39-2.365 2.967-1.652 1.576.714 3.566-1.426 2.215-2.177-1.352-.751 1.764-2.216 2.102-.714.338 1.502 3.229-1.464.15-2.365-3.078-.901-1.163-2.516-.262-2.778.901-.263-1.69-2.741-2.065-1.314-.376 1.426-.676-3.267-1.765-1.39-1.089 1.878-5.97-2.853-5.031.113.939 2.966 2.778.638 2.741 1.539-.038.902-2.854 2.741-4.205.564-1.352-2.178-2.628 1.839-1.84 1.727.788-.113 1.089 1.577.338 1.389-.751-.188-2.891 2.328-1.765 2.816 1.127.488 2.966-.564 2.591.3-.376.864-1.638 1.241-1.352 1.99Z"/><path fill="#AAB712" d="M352.455 132.235c-.272-3.983-4.093 1.427-1.427 2.102 2.666.676 1.99 3.492 3.829 2.103 1.84-1.389 1.014-1.389 2.441-.714 1.427.676 4.205-.863 4.092-1.652-.112-.788 2.957 1.559 2.253 2.141-.864.713.901 1.764 3.417.525 2.515-1.239.976-1.502 3.003-.938 2.028.563 3.342-.263 2.891-1.089-.45-.826 3.905-1.014 4.581.413.676 1.426 4.205-3.154 1.502-2.929-2.704.226-1.465-1.877-2.666-1.201-1.202.676-2.365.601-2.854-.976-.488-1.577-1.839-1.69-2.402-.789-.564.901-1.052-.413-1.277-1.351-.225-.939-1.727-2.666-2.44-1.164-.714 1.502-.916-2.129-2.028-1.502-1.464.826.895 2.178-.939 2.178-1.201 0 .714-2.291-1.539-2.553-1.842-.215-.3 1.126-1.201 1.576-.901.451-2.629-1.126-2.291-.112.338 1.013 1.915 2.14.038 1.839-1.877-.3-4.393.639-3.417 1.052.976.413-.413 2.891-.751 1.652-.337-1.239-.638-1.54-1.539-.676-.901.863.864 1.577-.113 1.84-.722.049-1.115.798-1.163.225Z"/><path fill="#96AC0B" d="M350.164 114.476c-2.403-.563-1.502-2.14.413-1.69 1.915.451 1.84-2.215 2.591-1.088.751 1.126 1.915-1.39 2.478-.376.563 1.014 1.389 1.915 1.84.713.45-1.201 1.914-1.126 1.952-.337.037.788-1.352.713-.638 1.389.713.675 3.041-2.178 2.853-.789-.188 1.389 4.881 3.154 2.741 3.867-2.14.714-4.581.601-4.13 1.84.45 1.239.263 2.853-1.727 1.802-1.99-1.051-4.656 2.103-5.144.15-.488-1.952-4.205-1.464-3.679-2.44.525-.976-1.953-2.253-.451-2.065 1.502.188 2.441-.939 1.652-.901-.788.037-.582.111-.751-.075Z"/><path fill="#E9EF87" d="M362.855 109.971c-1.952.338-1.84-.338-.676-1.164 1.164-.826.638-2.028-1.089-1.727-1.727.3-3.98-4.093-2.102-3.642 1.877.451 2.928-2.553 3.754-.976.826 1.577 3.192-.601 3.229.938.038 1.54 3.154 1.39 2.966.639-.188-.751 2.29-2.29 2.741-.563.451 1.727 5.482.826 4.43 3.341-1.051 2.515-2.703 3.079-4.28 2.065-1.577-1.014-2.403.601-2.741 1.502-.338.901-1.652 1.164-2.515-.226-.864-1.389-.939-1.764-1.69-1.051-.751.714-1.585.787-2.027.864Z"/><path fill="url(#t)" d="M349.676 256.506c2.403 2.779 7.509 2.253 2.178 4.431-5.331 2.177 1.952 7.358-3.004 8.785-4.956 1.427-6.382.676-6.457-2.703-.076-3.379-2.253-5.857-4.956-2.778-2.704 3.078 3.078 2.327.15 3.454-2.929 1.126-4.055 1.276-4.656-1.652-.601-2.929-.826-3.154-3.754-2.103-2.929 1.051-6.533-.826-5.782-3.379.75-2.553-2.253-12.69 3.003-8.86 5.257 3.829 6.458-6.383 8.786-1.953 2.328 4.431 8.335-7.734 8.936-3.228.6 4.505-8.861 9.085-3.004 8.41 5.857-.676 9.011-10.738 9.311-5.557.301 5.181-2.35 5.356-.751 7.133Z"/><path fill="url(#u)" d="M332.759 237.168c-1.432.293-4.945 4.165.507 7.084 5.451 2.919 1.686 3.437 2 4.711.313 1.273 2.831 9.748 6.559 7.082 3.728-2.666 5.361 4.407 5.994 1.652s.918-7.324-1.341-6.445c-2.259.879-2.238-2.921 1.207-3.857 3.445-.935 3.153-7.616.546-6.944-2.606.672-6.103 2.405-6.07-.269.033-2.673-.041-6.968-2.022-5.356-1.981 1.612-2.345-1.704-4.373-1.758-2.028-.055.137 4.624-1.14 4.562-1.278-.062-.436-.754-1.867-.462Z"/><path fill="url(#v)" d="M352.476 225.548c-1.539-2.071-1.827-8.622 4.753-7.142 2.123.478 1.983 1.498 4.008.425 2.179-1.155 3-.743 5.151.584 2.511 1.55 2.761 4.009 7.009 3.053 4.082-.919 9.451-.743 7.008 1.487-2.442 2.23 5.098 7.008 5.841 3.185.743-3.822 1.699-10.831 6.903-6.052 5.203 4.778 4.247 13.911 2.23 11.893-2.018-2.018-6.372.106-7.328 2.442-.955 2.337-4.566 8.283-7.327 4.885-2.761-3.398-5.204-3.504-5.628-1.911-.425 1.593-9.027 2.23-6.903-.956 2.124-3.186-2.124-8.07-3.823-7.009-1.699 1.062-9.77.956-10.513-.637-.743-1.593.159-2.177-1.381-4.247Z"/><path fill="#ABB313" d="M346.822 166.19c2.528-.745 2.389-1.274 2.123.213-.265 1.486-2.23 4.194-4.247 3.132-2.018-1.062-4.142.053-2.761 1.115 1.38 1.062-3.345 3.876-3.505 2.761-.159-1.115.744-3.026-.531-2.124-1.274.903-4.778 2.708-4.247.584.531-2.123 0-3.557-1.328-2.92-1.327.637-3.239-3.663-1.38-3.504 1.858.159 2.867-3.186 3.823-1.859.955 1.328 3.504.638 3.345-.318-.16-.956 3.451-1.912 3.398-.584-.053 1.327-1.805 4.248-.372 4.194 1.434-.053 0-2.707.85-2.654.849.053 2.017-2.177 2.92-1.222.903.956.18 3.697 1.912 3.186Z"/><path fill="#BD977C" d="M288.218 385.246c9.728-22.72 12.741-49.734 18.466-48.226 18.148 4.781 38.265 6.875 56.952 1.821 0 0-4.475 39.817-14.126 55.393-35.116-2.021-62.562-6.023-61.292-8.988Z"/><path fill="#6E4F37" d="m287.954 386.245-.561-5.35-2.87.648 2.69 4.69M377.269 385.535l2.094-5.086 2.88.253-4.315 4.851"/><path fill="#D2AB8C" d="m363.636 338.841 5.268 46.504s4.089.554 8.268 0c-6.985-17.967-13.536-46.504-13.536-46.504-4.906 27.871-5.993 38.904-14.288 55.529 8.323-1.286 7.798-3.616 15.374-5.231.567-16.209-1.086-50.298-1.086-50.298Z"/><path fill="#6E4F37" d="m350.054 395.313-.152-4.056 3.644-.003-2.727 4.08"/><path fill="#A78267" d="M368.75 384.032s-2.641-23.36-5.114-45.191c.93 24.889 1.391 30.643 1.195 44.741l3.919.45Z"/><defs><linearGradient id="b" x1="178.75" x2="189.099" y1="274.24" y2="261.364" gradientUnits="userSpaceOnUse"><stop stop-color="#3F6008"/><stop offset="1" stop-color="#E9EF87"/></linearGradient><linearGradient id="c" x1="177.934" x2="165.71" y1="225.996" y2="207.89" gradientUnits="userSpaceOnUse"><stop stop-color="#6B9F16"/><stop offset="1" stop-color="#E9EF87"/></linearGradient><linearGradient id="d" x1="136.386" x2="159.527" y1="203.364" y2="220.533" gradientUnits="userSpaceOnUse"><stop stop-color="#8ABC1F"/><stop offset="1" stop-color="#396103"/></linearGradient><linearGradient id="e" x1="151.828" x2="144.502" y1="183.605" y2="170.837" gradientUnits="userSpaceOnUse"><stop stop-color="#3F7751"/><stop offset="1" stop-color="#AAB712"/></linearGradient><linearGradient id="f" x1="143.866" x2="121.45" y1="299.632" y2="270.661" gradientUnits="userSpaceOnUse"><stop stop-color="#18451B"/><stop offset="1" stop-color="#AAB712"/></linearGradient><linearGradient id="g" x1="140.303" x2="119.202" y1="266.631" y2="257.602" gradientUnits="userSpaceOnUse"><stop stop-color="#3F6008"/><stop offset="1" stop-color="#E9EF87"/></linearGradient><linearGradient id="h" x1="171.761" x2="167.906" y1="247.131" y2="265.865" gradientUnits="userSpaceOnUse"><stop stop-color="#236100"/><stop offset="1" stop-color="#F3F55C"/></linearGradient><linearGradient id="i" x1="206.499" x2="192.866" y1="268.597" y2="251.634" gradientUnits="userSpaceOnUse"><stop stop-color="#3F6008"/><stop offset="1" stop-color="#E9EF87"/></linearGradient><linearGradient id="j" x1="213.892" x2="197.789" y1="211.283" y2="187.432" gradientUnits="userSpaceOnUse"><stop stop-color="#6B9F16"/><stop offset="1" stop-color="#E9EF87"/></linearGradient><linearGradient id="k" x1="262.305" x2="231.821" y1="175.23" y2="197.848" gradientUnits="userSpaceOnUse"><stop stop-color="#8ABC1F"/><stop offset="1" stop-color="#396103"/></linearGradient><linearGradient id="l" x1="241.964" x2="251.614" y1="149.202" y2="132.382" gradientUnits="userSpaceOnUse"><stop stop-color="#3F7751"/><stop offset="1" stop-color="#AAB712"/></linearGradient><linearGradient id="m" x1="252.451" x2="281.981" y1="302.045" y2="263.881" gradientUnits="userSpaceOnUse"><stop stop-color="#18451B"/><stop offset="1" stop-color="#AAB712"/></linearGradient><linearGradient id="n" x1="257.145" x2="284.942" y1="258.572" y2="246.679" gradientUnits="userSpaceOnUse"><stop stop-color="#3F6008"/><stop offset="1" stop-color="#E9EF87"/></linearGradient><linearGradient id="o" x1="215.706" x2="220.783" y1="242.812" y2="218.133" gradientUnits="userSpaceOnUse"><stop stop-color="#236100"/><stop offset="1" stop-color="#F3F55C"/></linearGradient><linearGradient id="p" x1="380.829" x2="391.329" y1="253.428" y2="240.362" gradientUnits="userSpaceOnUse"><stop stop-color="#3F6008"/><stop offset="1" stop-color="#E9EF87"/></linearGradient><linearGradient id="q" x1="380" x2="367.597" y1="204.477" y2="186.105" gradientUnits="userSpaceOnUse"><stop stop-color="#6B9F16"/><stop offset="1" stop-color="#E9EF87"/></linearGradient><linearGradient id="r" x1="337.844" x2="361.324" y1="181.512" y2="198.933" gradientUnits="userSpaceOnUse"><stop stop-color="#8ABC1F"/><stop offset="1" stop-color="#396103"/></linearGradient><linearGradient id="s" x1="353.512" x2="346.078" y1="161.465" y2="148.509" gradientUnits="userSpaceOnUse"><stop stop-color="#3F7751"/><stop offset="1" stop-color="#AAB712"/></linearGradient><linearGradient id="t" x1="345.434" x2="322.688" y1="279.191" y2="249.795" gradientUnits="userSpaceOnUse"><stop stop-color="#18451B"/><stop offset="1" stop-color="#AAB712"/></linearGradient><linearGradient id="u" x1="341.818" x2="320.408" y1="245.707" y2="236.545" gradientUnits="userSpaceOnUse"><stop stop-color="#3F6008"/><stop offset="1" stop-color="#E9EF87"/></linearGradient><linearGradient id="v" x1="373.737" x2="369.826" y1="225.921" y2="244.93" gradientUnits="userSpaceOnUse"><stop stop-color="#236100"/><stop offset="1" stop-color="#F3F55C"/></linearGradient><filter id="a" width="457" height="114.383" x="0" y="354.617" color-interpolation-filters="sRGB" filterUnits="userSpaceOnUse"><feFlood flood-opacity="0" result="BackgroundImageFix"/><feColorMatrix in="SourceAlpha" result="hardAlpha" values="0 0 0 0 0 0 0 0 0 0 0 0 0 0 0 0 0 0 127 0"/><feOffset dx="1" dy="9"/><feGaussianBlur stdDeviation="4"/><feComposite in2="hardAlpha" operator="out"/><feColorMatrix values="0 0 0 0 0 0 0 0 0 0 0 0 0 0 0 0 0 0 0.64 0"/><feBlend in2="BackgroundImageFix" result="effect1_dropShadow_3148_519"/><feBlend in="SourceGraphic" in2="effect1_dropShadow_3148_519" result="shape"/></filter></defs></svg>