<svg width="457" height="469" viewBox="0 0 457 469" fill="none" xmlns="http://www.w3.org/2000/svg">
<g filter="url(#filter0_d_3148_519)">
<path d="M419.605 360.187C419.605 360.187 325.829 350.482 301.566 356.693C277.302 362.904 261.845 381.199 204.017 369.384C146.189 357.569 94.3421 367.562 78.6035 373.773C62.865 379.984 35.3226 407.934 18.2725 412.593C1.22248 417.251 -5.76254 437.719 66.7997 435.108C185.494 430.838 193.364 459.952 281.893 449.859C322.502 445.23 361.897 405.605 400.587 403.276C439.278 400.947 474.69 371.832 419.605 360.187Z" fill="#8BAB2E" fill-opacity="0.5" shape-rendering="crispEdges"/>
</g>
<path d="M160.771 130.885L159.208 130.849C159.208 130.849 157.826 178.037 157.758 246.409C157.757 247.059 139.293 242.619 139.301 242.978C139.309 243.338 157.789 248.497 157.788 249.141C157.76 261.932 157.66 274.123 157.46 285.053C157.453 285.451 131.045 272.941 131.037 273.336C131.031 273.683 157.425 286.936 157.418 287.281C156.46 306.519 160.651 363.087 157.577 383.255C157.546 383.457 154.681 384.877 154.649 385.071L155.664 385.493C155.664 385.493 156.306 385.264 157.031 385.018C157.104 384.993 157.762 385.462 157.762 385.462L158.067 385.471C158.067 385.471 157.557 384.842 157.661 384.808C158.313 384.593 158.903 384.414 159.022 384.423C159.228 384.44 159.892 386.433 159.892 386.433C159.892 386.433 160.335 386.478 160.445 386.449C160.338 385.366 160.452 384.163 160.787 384.215C161.526 384.596 162.031 386.357 162.556 386.624C163.81 386.625 163.95 386.687 163.95 386.687C163.95 386.687 163.002 384.555 163.956 384.55C164.443 384.546 170.331 386.652 170.331 386.652C170.331 386.652 171.531 386.649 171.767 386.647C171.816 386.274 167.813 383.813 167.813 383.813C167.813 383.813 165.695 381.895 165.234 377.987C162.5 320.5 161.851 312.718 161.202 282.496C161.192 282.014 165.944 276.694 168.132 275.55C170.799 274.156 176.851 272.941 176.851 272.941C176.851 272.941 170.497 273.555 167.672 274.901C165.153 276.101 161.729 280.208 161.304 280.101C160.43 279.881 160.222 232.283 160.222 232.283L167.39 224.251L160.192 230.779L160.527 172.944L169.047 167.894L160.535 171.662L160.771 130.885Z" fill="#6E4F37"/>
<path d="M159.206 228.818C159.206 228.818 156.851 223.114 155.543 224.37C154.235 225.626 153.345 223.061 151.566 222.12C149.787 221.178 151.095 222.904 148.164 223.009C145.234 223.114 147.484 217.829 144.03 219.451C140.577 221.073 143.978 222.59 142.565 223.009C141.152 223.428 137.803 217.044 136.809 220.288C135.815 223.532 135.291 224.422 131.733 225.312C128.174 226.201 139.321 228.713 139.582 227.3C139.844 225.887 144.292 226.515 144.03 229.027C143.769 231.539 147.903 234.574 149.316 231.382C150.729 228.19 151.88 229.655 153.973 230.544C156.066 231.434 159.206 228.818 159.206 228.818Z" fill="#3E7606"/>
<path d="M175.855 275.159C175.099 274.685 172.155 275.418 171.008 273.235C169.861 271.052 174.005 271.459 175.3 272.162C176.595 272.865 178.15 269.239 180.814 268.72C183.478 268.202 182.595 269.651 183.034 269.572C183.915 269.413 185.106 268.054 185.365 268.239C185.624 268.424 187.289 271.866 187.992 271.311C188.695 270.756 190.509 270.719 190.472 272.051C190.435 273.383 187.77 276.935 186.327 275.677C184.884 274.419 183.885 272.791 183.626 273.235C183.367 273.679 181.005 278.384 175.855 275.159Z" fill="url(#paint0_linear_3148_519)"/>
<path d="M134.715 253.58C136.254 252.743 139.101 257.354 143.823 248.633C144.452 247.471 150.271 247.605 150.592 244.316C151.159 238.505 144.164 242.733 143.271 241.888C141.251 239.975 137.921 240.092 137.414 242.259C136.571 245.865 135.98 238.989 133.788 239.241C131.595 239.492 133.198 242.763 132.607 243.182C132.017 243.601 128.936 242.793 129.318 246.788C129.487 248.549 124.953 245.949 125.271 249.052C126.076 256.919 123.439 250.752 119.958 252.867C118.903 253.509 120.6 254.367 119.932 255.029C118.115 256.832 120.068 258.896 121.138 258.192C124.006 256.305 127.294 260.289 127.969 259.198C128.644 258.108 129.592 254.313 132.944 255.676C133.872 256.054 133.91 254.018 134.715 253.58Z" fill="#8F930F"/>
<path d="M184.078 223.992C181.832 223.656 180.821 223.326 180.229 227.544C179.466 232.983 179.67 232.152 176.381 232.058C174.305 231.999 173.42 233.673 172.089 232.576C170.526 231.288 168.036 228.806 166.168 228.876C164.319 228.945 158.684 232.369 162.468 225.99C165.058 221.623 167.231 225.087 173.643 219.551C180.477 213.651 180.229 217.035 182.079 217.479C183.703 217.869 193.476 225.398 184.078 223.992Z" fill="url(#paint1_linear_3148_519)"/>
<path d="M156.004 207.695C154.661 207.408 152.47 203.906 150.878 205.575C148.861 207.688 147.538 202.929 145.864 205.545C144.226 208.106 144.97 207.909 143.791 208.465C143.158 208.764 141.41 206.922 139.875 209.724C139.236 210.891 137.096 209.077 137.031 210.769C136.975 212.198 139.354 213.777 140.594 214.575C144.984 217.402 146.74 215.601 147.431 215.649C148.825 215.745 154.129 217.805 155.2 215.126C156.272 212.446 160.613 216.44 161.952 214.57C163.292 212.699 160.218 211.273 159.809 210.664C158.236 208.324 159.991 208.546 156.004 207.695Z" fill="url(#paint2_linear_3148_519)"/>
<path d="M146.391 161.493C144.826 162.221 146.306 162.448 146.62 164.51C146.934 166.572 144.575 163.668 144.644 165.183C144.713 166.698 148.028 168.69 148.872 167.569C149.717 166.449 151.365 167.28 151.656 168.931C151.947 170.582 155.813 170.926 154.714 169.287C153.615 167.649 153.93 167.103 155.665 168.012C157.4 168.921 162.648 168.296 161.092 167.063C159.537 165.83 158.342 166.483 157.988 164.885C157.634 163.288 156.622 162.127 155.071 161.855C154.262 161.714 153.712 161.839 153.652 162.447C153.529 163.677 153.629 164.065 152.493 163.534C151.357 163.004 151.811 161.01 150.666 161.225C148.435 161.642 147.68 160.894 146.391 161.493Z" fill="#639509"/>
<path d="M161.11 216.209C160.916 216.209 157.05 215.025 160.047 214.063C163.043 213.101 160.481 209.178 162.705 210.029C164.928 210.881 163.091 206.44 165.073 207.365C167.054 208.29 176.43 208.438 175.608 209.585C174.786 210.732 180.392 209.511 178.363 211.177C176.333 212.842 172.032 212.065 171.887 213.175C171.742 214.285 174.158 215.321 171.549 216.32C168.939 217.319 166.909 222.203 165.701 220.649C164.493 219.095 162.946 216.283 162.028 216.246C161.11 216.209 161.11 216.209 161.11 216.209Z" fill="#396103"/>
<path d="M158.84 201.45C158.84 201.45 157.741 199.514 156.328 200.037C154.915 200.56 158.631 196.008 156.538 195.798C154.444 195.589 156.328 197.944 154.026 197.368C151.723 196.793 156.171 193.653 152.927 193.81C149.682 193.967 145.862 195.275 147.746 196.426C149.63 197.578 148.845 198.258 147.746 198.258C146.647 198.258 146.49 201.764 147.485 201.084C148.479 200.403 149.996 198.206 150.52 199.514C151.043 200.822 152.665 201.973 153.293 200.613C153.921 199.252 153.817 205.008 154.968 203.805C156.119 202.601 159.625 202.653 158.84 201.45Z" fill="#6E9223"/>
<path d="M162.183 198.128C160.074 196.499 158.039 197.128 161.924 195.833C165.809 194.538 162.664 193.872 162.294 194.02C161.924 194.168 163.108 189.802 164.81 192.133C166.512 194.464 167.437 189.691 169.028 192.651C170.62 195.611 167.881 193.724 168.066 195.056C168.251 196.388 172.544 193.206 172.803 195.019C173.062 196.832 177.687 196.61 177.798 194.427C177.909 192.244 180.61 192.17 180.758 193.502C180.906 194.834 177.909 194.797 179.019 195.685C180.129 196.573 180.499 198.535 178.982 198.572C177.465 198.609 177.317 203.752 175.8 202.716C174.283 201.68 171.212 205.158 170.731 203.456C170.25 201.754 172.026 198.535 170.842 199.349C169.657 200.163 171.101 201.939 170.287 201.828C169.472 201.717 165.772 203.197 166.697 201.236C167.622 199.275 164.181 199.275 163.959 200.274C163.737 201.273 161.295 200.681 161.702 199.793C162.109 198.905 162.735 198.299 162.183 198.128C162.183 198.128 162.183 198.128 162.183 198.128Z" fill="#397102"/>
<path d="M166.71 181.707C170.449 183.577 172.568 185.446 169.514 185.384C166.46 185.321 164.342 185.134 164.716 186.879C165.089 188.624 161.101 190.618 161.163 189.061C161.226 187.503 157.923 183.95 158.172 186.256C158.421 188.562 157.237 190.681 156.365 189.372C155.492 188.063 149.011 188.687 150.32 187.565C151.629 186.443 152.875 184.324 150.943 184.823C149.011 185.321 144.649 186.755 145.023 185.197C145.397 183.639 141.346 180.71 140.286 183.452C139.227 186.194 138.043 187.876 137.108 186.007C136.173 184.137 130.627 184.636 132.621 182.704C134.615 180.772 134.179 174.416 136.984 176.659C139.788 178.903 138.417 175.849 140.723 176.535C143.028 177.22 141.907 169.368 145.023 171.674C148.139 173.98 146.144 180.959 147.889 178.467C149.634 175.974 147.827 171.425 150.694 173.668C153.56 175.911 149.447 178.653 152.065 178.28C154.682 177.906 156.676 171.425 159.107 174.727C161.537 178.03 158.297 180.024 160.166 180.087C162.036 180.149 165.463 175.288 166.024 177.407C166.585 179.526 166.595 180.26 166.71 181.707C166.71 181.707 166.71 181.707 166.71 181.707Z" fill="url(#paint3_linear_3148_519)"/>
<path d="M163.441 171.967C162.257 174.002 162.701 174.594 164.403 173.743C166.105 172.892 168.252 175.519 168.548 173.891C168.844 172.263 169.917 171.56 171.471 172.263C173.025 172.966 174.986 170.857 173.654 170.117C172.322 169.377 175.393 167.934 175.726 169.414C176.059 170.894 178.908 167.971 175.874 167.082C172.84 166.194 174.727 164.603 175.615 164.344C176.503 164.085 173.95 161.643 173.58 163.049C173.21 164.455 172.914 159.83 171.841 161.68C170.768 163.53 165.957 158.868 166.882 161.791C167.807 164.714 169.621 162.42 169.584 163.308C169.547 164.196 166.771 166.009 165.439 163.863C164.107 161.717 162.849 165.676 163.626 165.565C164.403 165.454 164.699 167.119 163.959 166.934C163.219 166.749 161.11 169.229 162.22 169.71C163.33 170.191 165.143 169.155 164.773 170.006C164.403 170.857 163.159 171.228 163.441 171.967C163.441 171.967 163.441 171.967 163.441 171.967Z" fill="#5F9204"/>
<path d="M150.786 154.798C150.519 150.873 146.753 156.204 149.38 156.87C152.007 157.536 151.341 160.311 153.154 158.942C154.967 157.573 154.153 157.573 155.56 158.239C156.966 158.905 159.704 157.388 159.593 156.611C159.482 155.834 162.507 158.147 161.813 158.72C160.962 159.423 162.701 160.459 165.18 159.238C167.659 158.017 166.142 157.758 168.141 158.313C170.139 158.868 171.434 158.054 170.99 157.24C170.546 156.426 174.838 156.241 175.504 157.647C176.17 159.053 179.648 154.539 176.984 154.761C174.32 154.983 175.541 152.911 174.357 153.577C173.173 154.243 172.026 154.169 171.545 152.615C171.064 151.061 169.732 150.95 169.177 151.838C168.622 152.726 168.14 151.431 167.918 150.506C167.696 149.581 166.216 147.879 165.513 149.359C164.81 150.839 164.611 147.26 163.515 147.879C162.072 148.693 164.397 150.025 162.59 150.025C161.406 150.025 163.293 147.768 161.073 147.509C159.257 147.297 160.777 148.619 159.889 149.063C159.001 149.507 157.299 147.953 157.632 148.952C157.965 149.951 159.519 151.061 157.669 150.765C155.819 150.469 153.339 151.394 154.301 151.801C155.263 152.208 153.894 154.65 153.561 153.429C153.228 152.208 152.932 151.912 152.044 152.763C151.156 153.614 152.895 154.317 151.933 154.576C151.221 154.625 150.834 155.363 150.786 154.798Z" fill="#AAB712"/>
<path d="M148.529 137.296C146.161 136.741 147.049 135.187 148.936 135.631C150.823 136.075 150.749 133.448 151.489 134.558C152.229 135.668 153.376 133.189 153.931 134.188C154.486 135.187 155.3 136.075 155.744 134.891C156.188 133.707 157.631 133.781 157.668 134.558C157.705 135.335 156.336 135.261 157.039 135.927C157.742 136.593 160.037 133.781 159.852 135.15C159.667 136.519 164.662 138.258 162.553 138.961C160.444 139.664 158.038 139.553 158.483 140.774C158.927 141.995 158.742 143.586 156.78 142.55C154.819 141.514 152.192 144.622 151.711 142.698C151.23 140.774 147.567 141.255 148.085 140.293C148.603 139.331 146.161 138.073 147.641 138.258C149.121 138.443 150.046 137.333 149.269 137.37C148.492 137.407 148.695 137.48 148.529 137.296C148.529 137.296 148.529 137.296 148.529 137.296Z" fill="#96AC0B"/>
<path d="M161.036 132.856C159.112 133.189 159.223 132.523 160.37 131.709C161.517 130.894 160.999 129.71 159.297 130.006C157.594 130.302 155.374 125.973 157.224 126.417C159.075 126.861 160.111 123.901 160.925 125.455C161.739 127.009 164.07 124.863 164.107 126.38C164.144 127.897 167.215 127.749 167.03 127.009C166.845 126.269 169.287 124.752 169.731 126.454C170.175 128.156 175.134 127.268 174.098 129.747C173.062 132.227 171.434 132.782 169.879 131.783C168.325 130.783 167.511 132.375 167.178 133.263C166.845 134.151 165.55 134.41 164.699 133.041C163.848 131.672 163.774 131.302 163.034 132.005C162.294 132.708 161.471 132.78 161.036 132.856Z" fill="#E9EF87"/>
<path d="M148.048 277.275C150.416 280.013 155.448 279.495 150.194 281.641C144.94 283.787 152.118 288.893 147.234 290.299C142.349 291.705 140.943 290.965 140.869 287.635C140.795 284.305 138.649 281.863 135.985 284.897C133.321 287.931 139.019 287.191 136.133 288.301C133.247 289.411 132.136 289.559 131.544 286.673C130.952 283.787 130.73 283.565 127.844 284.601C124.958 285.637 121.406 283.787 122.146 281.271C122.886 278.755 119.925 268.764 125.106 272.538C130.286 276.313 131.47 266.248 133.765 270.614C136.059 274.981 141.979 262.992 142.571 267.432C143.163 271.872 133.839 276.387 139.611 275.721C145.383 275.055 148.492 265.138 148.788 270.244C149.084 275.351 146.471 275.523 148.048 277.275C148.048 277.275 148.048 277.275 148.048 277.275Z" fill="url(#paint4_linear_3148_519)"/>
<path d="M131.374 258.216C129.964 258.504 126.501 262.321 131.874 265.197C137.246 268.074 133.536 268.585 133.845 269.84C134.154 271.095 136.636 279.448 140.31 276.82C143.984 274.193 145.594 281.163 146.217 278.448C146.841 275.733 147.122 271.23 144.895 272.097C142.669 272.963 142.69 269.218 146.085 268.295C149.481 267.373 149.192 260.789 146.623 261.452C144.054 262.114 140.608 263.821 140.641 261.186C140.673 258.551 140.601 254.319 138.648 255.907C136.696 257.496 136.337 254.229 134.338 254.175C132.339 254.121 134.473 258.732 133.214 258.671C131.955 258.61 132.785 257.928 131.374 258.216Z" fill="url(#paint5_linear_3148_519)"/>
<path d="M150.807 246.763C149.29 244.722 149.006 238.265 155.491 239.724C157.584 240.195 157.446 241.201 159.442 240.143C161.589 239.005 162.398 239.41 164.518 240.719C166.992 242.246 167.239 244.669 171.425 243.728C175.449 242.822 180.74 242.995 178.333 245.193C175.926 247.391 183.357 252.1 184.089 248.332C184.822 244.565 185.764 237.657 190.892 242.367C196.021 247.077 195.079 256.077 193.09 254.089C191.101 252.1 186.81 254.193 185.868 256.496C184.927 258.798 181.368 264.659 178.647 261.31C175.926 257.961 173.519 257.856 173.1 259.426C172.681 260.996 164.204 261.624 166.297 258.484C168.39 255.345 164.204 250.53 162.529 251.577C160.855 252.623 152.901 252.519 152.168 250.949C151.435 249.379 152.325 248.803 150.807 246.763Z" fill="url(#paint6_linear_3148_519)"/>
<path d="M145.234 188.263C147.726 187.528 147.589 187.007 147.327 188.472C147.066 189.937 145.129 192.606 143.141 191.56C141.152 190.513 139.059 191.612 140.42 192.659C141.78 193.705 137.123 196.479 136.966 195.38C136.809 194.281 137.699 192.397 136.443 193.287C135.187 194.176 131.733 195.955 132.256 193.862C132.78 191.769 132.256 190.356 130.948 190.984C129.64 191.612 127.756 187.373 129.587 187.53C131.419 187.687 132.413 184.391 133.355 185.699C134.297 187.007 136.809 186.327 136.652 185.385C136.495 184.443 140.053 183.501 140.001 184.809C139.949 186.117 138.222 188.996 139.635 188.943C141.048 188.891 139.635 186.274 140.472 186.327C141.309 186.379 142.461 184.181 143.35 185.123C144.24 186.065 143.527 188.766 145.234 188.263Z" fill="#ABB313"/>
<path d="M230.182 79.7529L232.242 79.7056C232.242 79.7056 234.062 141.867 234.152 231.934C234.153 232.79 258.476 226.941 258.465 227.415C258.455 227.888 234.11 234.685 234.112 235.533C234.148 252.383 234.281 268.442 234.544 282.841C234.553 283.365 269.341 266.886 269.351 267.405C269.36 267.863 234.591 285.32 234.6 285.775C235.874 311.371 232.458 409.753 235.977 412.79L242.218 418.177L238.366 418.041C238.366 418.041 235.389 416.253 232.477 414.823C231.647 414.415 230.633 417.611 230.633 417.611L228.112 417.932C228.112 417.932 228.683 412.97 227.215 414.034C225.888 414.996 223.579 417.344 223.579 417.344L221.716 416.664C221.716 416.664 223.505 413.534 223.617 413.278C228.964 400.986 229.333 311.182 229.332 308.366C229.331 307.477 214.553 300.99 214.553 300.99L214.296 299.955C214.296 299.955 225.093 304.77 226.571 305.239C229.514 306.174 229.12 304.813 229.12 304.813C229.12 304.813 229.599 280.205 229.615 279.472C229.629 278.836 223.368 271.828 220.486 270.322C216.972 268.485 209 266.884 209 266.884C209 266.884 217.371 267.694 221.092 269.466C224.41 271.047 228.921 276.457 229.48 276.316C230.632 276.026 230.906 213.326 230.906 213.326L221.463 202.745L230.945 211.344L230.503 135.157L219.28 128.504L230.494 133.468L230.182 79.7529Z" fill="#6E4F37"/>
<path d="M232.244 208.761C232.244 208.761 235.346 201.247 237.069 202.901C238.792 204.556 239.964 201.178 242.308 199.937C244.652 198.696 242.929 200.971 246.789 201.109C250.649 201.247 247.685 194.285 252.235 196.422C256.785 198.558 252.304 200.558 254.165 201.109C256.026 201.66 260.438 193.251 261.748 197.524C263.058 201.798 263.747 202.97 268.435 204.142C273.122 205.314 258.439 208.623 258.094 206.762C257.75 204.9 251.89 205.728 252.235 209.036C252.579 212.345 247.134 216.343 245.272 212.138C243.411 207.933 241.895 209.864 239.137 211.035C236.38 212.207 232.244 208.761 232.244 208.761Z" fill="#3E7606"/>
<path d="M210.312 269.807C211.309 269.182 215.186 270.148 216.697 267.272C218.209 264.396 212.749 264.932 211.043 265.859C209.337 266.785 207.29 262.008 203.78 261.325C200.271 260.643 201.433 262.551 200.856 262.446C199.695 262.237 198.126 260.448 197.785 260.692C197.443 260.935 195.25 265.469 194.324 264.737C193.398 264.006 191.009 263.958 191.058 265.712C191.106 267.467 194.616 272.146 196.517 270.489C198.418 268.832 199.734 266.687 200.076 267.272C200.417 267.857 203.529 274.055 210.312 269.807Z" fill="url(#paint7_linear_3148_519)"/>
<path d="M260.606 218.438C258.579 219.541 254.829 213.467 248.608 224.956C247.78 226.486 240.114 226.309 239.691 230.642C238.945 238.297 248.159 232.727 249.335 233.841C251.996 236.36 256.383 236.206 257.051 233.351C258.162 228.601 258.939 237.659 261.828 237.328C264.716 236.996 262.605 232.688 263.383 232.136C264.161 231.584 268.219 232.648 267.715 227.386C267.493 225.066 273.466 228.491 273.048 224.403C271.987 214.04 275.461 222.164 280.046 219.377C281.436 218.532 279.201 217.402 280.081 216.529C282.474 214.155 279.9 211.435 278.491 212.363C274.714 214.848 270.381 209.601 269.493 211.037C268.604 212.473 267.355 217.473 262.939 215.677C261.717 215.18 261.666 217.861 260.606 218.438Z" fill="#8F930F"/>
<path d="M221.985 208.642C219.027 208.2 217.696 207.765 216.916 213.322C215.91 220.486 216.179 219.392 211.846 219.268C209.112 219.19 207.946 221.396 206.192 219.951C204.134 218.254 200.853 214.985 198.393 215.076C195.957 215.167 188.533 219.678 193.519 211.274C196.931 205.523 199.792 210.085 208.239 202.793C217.243 195.021 216.916 199.478 219.353 200.063C221.492 200.577 234.366 210.494 221.985 208.642Z" fill="url(#paint8_linear_3148_519)"/>
<path d="M236.462 180.935C238.231 180.557 241.117 175.944 243.215 178.143C245.872 180.926 247.615 174.658 249.819 178.103C251.977 181.477 250.998 181.217 252.551 181.95C253.385 182.343 255.688 179.917 257.709 183.608C258.551 185.145 261.37 182.755 261.456 184.985C261.529 186.868 258.396 188.947 256.762 189.999C250.979 193.722 248.666 191.35 247.755 191.413C245.919 191.54 238.932 194.253 237.521 190.724C236.109 187.194 230.391 192.455 228.626 189.991C226.862 187.527 230.911 185.648 231.45 184.847C233.522 181.764 231.21 182.056 236.462 180.935Z" fill="url(#paint9_linear_3148_519)"/>
<path d="M249.125 120.073C251.187 121.032 249.237 121.331 248.823 124.048C248.409 126.764 251.517 122.938 251.426 124.934C251.336 126.929 246.969 129.554 245.856 128.077C244.743 126.601 242.572 127.697 242.189 129.872C241.806 132.046 236.713 132.499 238.161 130.341C239.609 128.182 239.193 127.463 236.908 128.661C234.622 129.859 227.71 129.035 229.759 127.41C231.807 125.786 233.382 126.647 233.848 124.542C234.315 122.437 235.648 120.909 237.691 120.55C238.757 120.364 239.481 120.529 239.56 121.33C239.722 122.95 239.591 123.461 241.087 122.762C242.583 122.063 241.985 119.437 243.494 119.719C246.432 120.27 247.427 119.284 249.125 120.073Z" fill="#639509"/>
<path d="M229.736 192.151C229.991 192.151 235.084 190.591 231.136 189.324C227.189 188.057 230.563 182.89 227.635 184.011C224.706 185.132 227.126 179.283 224.515 180.501C221.905 181.72 209.555 181.915 210.637 183.426C211.719 184.937 204.334 183.329 207.008 185.522C209.682 187.715 215.348 186.692 215.539 188.154C215.73 189.616 212.547 190.981 215.985 192.297C219.422 193.613 222.096 200.048 223.688 198C225.279 195.953 227.317 192.249 228.526 192.2C229.736 192.151 229.736 192.151 229.736 192.151Z" fill="#396103"/>
<path d="M232.726 172.709C232.726 172.709 234.174 170.158 236.035 170.847C237.896 171.537 233.002 165.539 235.759 165.264C238.517 164.988 236.035 168.09 239.068 167.332C242.101 166.573 236.242 162.437 240.516 162.644C244.79 162.851 249.822 164.574 247.34 166.091C244.859 167.607 245.893 168.504 247.34 168.504C248.788 168.504 248.995 173.122 247.685 172.226C246.375 171.33 244.376 168.435 243.687 170.158C242.997 171.881 240.86 173.398 240.033 171.606C239.206 169.813 239.344 177.396 237.827 175.811C236.311 174.225 231.692 174.294 232.726 172.709Z" fill="#6E9223"/>
<path d="M228.322 168.332C231.101 166.187 233.782 167.016 228.664 165.31C223.545 163.604 227.689 162.726 228.176 162.921C228.664 163.116 227.104 157.365 224.862 160.435C222.619 163.506 221.401 157.218 219.305 161.118C217.209 165.017 220.816 162.531 220.572 164.286C220.328 166.041 214.674 161.849 214.333 164.237C213.992 166.626 207.899 166.333 207.752 163.458C207.606 160.582 204.048 160.484 203.853 162.239C203.658 163.994 207.606 163.945 206.144 165.115C204.681 166.285 204.194 168.868 206.192 168.917C208.191 168.966 208.386 175.741 210.384 174.376C212.383 173.011 216.429 177.593 217.062 175.351C217.696 173.109 215.356 168.868 216.916 169.94C218.476 171.013 216.575 173.352 217.647 173.206C218.72 173.06 223.594 175.01 222.376 172.426C221.157 169.843 225.69 169.843 225.983 171.159C226.275 172.475 229.492 171.695 228.956 170.525C228.42 169.356 227.596 168.558 228.322 168.332C228.322 168.332 228.322 168.332 228.322 168.332Z" fill="#397102"/>
<path d="M222.36 146.701C217.434 149.164 214.643 151.627 218.665 151.545C222.688 151.463 225.479 151.216 224.987 153.515C224.494 155.814 229.748 158.441 229.666 156.388C229.584 154.336 233.935 149.657 233.606 152.694C233.278 155.732 234.838 158.523 235.987 156.799C237.136 155.075 245.674 155.896 243.95 154.418C242.226 152.94 240.584 150.149 243.129 150.806C245.674 151.463 251.421 153.351 250.928 151.299C250.436 149.246 255.772 145.388 257.167 149C258.563 152.612 260.123 154.829 261.354 152.366C262.585 149.903 269.892 150.56 267.265 148.015C264.638 145.47 265.212 137.097 261.518 140.052C257.824 143.007 259.63 138.985 256.593 139.888C253.555 140.791 255.033 130.447 250.928 133.485C246.823 136.522 249.45 145.716 247.152 142.433C244.853 139.149 247.234 133.156 243.458 136.112C239.681 139.067 245.1 142.679 241.652 142.186C238.204 141.694 235.577 133.156 232.375 137.507C229.173 141.858 233.442 144.485 230.979 144.567C228.517 144.649 224.001 138.246 223.263 141.037C222.524 143.828 222.511 144.795 222.36 146.701C222.36 146.701 222.36 146.701 222.36 146.701Z" fill="url(#paint10_linear_3148_519)"/>
<path d="M226.665 133.87C228.225 136.551 227.64 137.331 225.398 136.209C223.155 135.088 220.328 138.549 219.938 136.404C219.548 134.26 218.135 133.334 216.088 134.26C214.04 135.186 211.457 132.407 213.212 131.433C214.966 130.458 210.921 128.557 210.482 130.506C210.043 132.456 206.29 128.605 210.287 127.436C214.284 126.266 211.798 124.17 210.628 123.829C209.458 123.487 212.822 120.27 213.309 122.123C213.797 123.975 214.187 117.882 215.6 120.319C217.014 122.756 223.35 116.615 222.132 120.465C220.913 124.316 218.525 121.294 218.574 122.464C218.622 123.634 222.278 126.022 224.033 123.195C225.788 120.368 227.445 125.583 226.421 125.437C225.398 125.291 225.008 127.484 225.983 127.241C226.958 126.997 229.736 130.263 228.274 130.896C226.811 131.53 224.423 130.165 224.91 131.286C225.398 132.407 227.036 132.897 226.665 133.87C226.665 133.87 226.665 133.87 226.665 133.87Z" fill="#5F9204"/>
<path d="M243.335 111.253C243.688 106.083 248.649 113.105 245.188 113.983C241.727 114.86 242.604 118.516 240.216 116.712C237.827 114.909 238.9 114.909 237.047 115.786C235.195 116.664 231.588 114.665 231.734 113.642C231.88 112.618 227.895 115.665 228.81 116.42C229.931 117.346 227.64 118.711 224.374 117.102C221.108 115.494 223.106 115.153 220.474 115.884C217.842 116.615 216.136 115.543 216.721 114.47C217.306 113.398 211.652 113.154 210.774 115.006C209.897 116.859 205.315 110.912 208.824 111.204C212.334 111.497 210.725 108.767 212.285 109.645C213.845 110.522 215.356 110.424 215.99 108.377C216.623 106.33 218.378 106.184 219.109 107.354C219.841 108.523 220.474 106.817 220.767 105.599C221.059 104.38 223.009 102.138 223.935 104.088C224.861 106.038 225.123 101.323 226.567 102.138C228.468 103.21 225.406 104.965 227.786 104.965C229.346 104.965 226.86 101.992 229.784 101.651C232.176 101.372 230.174 103.113 231.344 103.698C232.514 104.283 234.756 102.236 234.318 103.552C233.879 104.868 231.832 106.33 234.269 105.94C236.706 105.55 239.972 106.769 238.705 107.305C237.437 107.841 239.241 111.058 239.68 109.45C240.118 107.841 240.508 107.451 241.678 108.572C242.848 109.693 240.557 110.619 241.824 110.961C242.763 111.025 243.273 111.998 243.335 111.253Z" fill="#AAB712"/>
<path d="M246.31 88.1975C249.429 87.4664 248.259 85.4191 245.773 86.0041C243.287 86.589 243.385 83.1282 242.41 84.5905C241.435 86.0528 239.924 82.787 239.193 84.1031C238.462 85.4191 237.389 86.589 236.804 85.0292C236.219 83.4694 234.318 83.5669 234.27 84.5905C234.221 85.6141 236.025 85.5166 235.098 86.394C234.172 87.2714 231.15 83.5669 231.394 85.3704C231.638 87.1739 225.057 89.4648 227.835 90.391C230.614 91.3171 233.782 91.1709 233.197 92.7794C232.612 94.3879 232.856 96.4839 235.44 95.1191C238.023 93.7543 241.484 97.8487 242.118 95.3141C242.751 92.7794 247.577 93.4131 246.895 92.1457C246.212 90.8784 249.429 89.2211 247.479 89.4649C245.53 89.7086 244.311 88.2463 245.335 88.295C246.358 88.3438 246.09 88.4397 246.31 88.1975C246.31 88.1975 246.31 88.1975 246.31 88.1975Z" fill="#96AC0B"/>
<path d="M229.834 82.3483C232.368 82.787 232.222 81.9096 230.711 80.8373C229.2 79.7649 229.883 78.2051 232.125 78.5951C234.367 78.985 237.292 73.282 234.854 73.867C232.417 74.4519 231.052 70.5524 229.98 72.5996C228.908 74.6468 225.837 71.8197 225.788 73.8182C225.739 75.8167 221.693 75.6217 221.937 74.6469C222.181 73.672 218.964 71.6735 218.379 73.9157C217.794 76.1579 211.262 74.988 212.627 78.2539C213.992 81.5197 216.137 82.2508 218.184 80.9347C220.231 79.6187 221.304 81.7146 221.742 82.8845C222.181 84.0543 223.887 84.3955 225.008 82.592C226.129 80.7885 226.227 80.3011 227.202 81.2272C228.176 82.1533 229.26 82.249 229.834 82.3483Z" fill="#E9EF87"/>
<path d="M246.943 272.594C243.823 276.201 237.194 275.518 244.116 278.346C251.037 281.173 241.581 287.899 248.015 289.751C254.45 291.604 256.302 290.629 256.399 286.242C256.497 281.855 259.324 278.638 262.834 282.635C266.343 286.632 258.837 285.657 262.639 287.119C266.441 288.582 267.903 288.777 268.683 284.975C269.463 281.173 269.755 280.88 273.557 282.245C277.36 283.61 282.039 281.173 281.064 277.858C280.089 274.544 283.989 261.383 277.165 266.355C270.34 271.327 268.78 258.068 265.758 263.82C262.736 269.572 254.937 253.779 254.157 259.628C253.377 265.477 265.661 271.424 258.057 270.547C250.453 269.669 246.358 256.606 245.968 263.333C245.578 270.059 249.02 270.287 246.943 272.594C246.943 272.594 246.943 272.594 246.943 272.594Z" fill="url(#paint11_linear_3148_519)"/>
<path d="M268.907 247.487C270.765 247.867 275.326 252.894 268.249 256.684C261.171 260.473 266.059 261.146 265.652 262.799C265.246 264.453 261.976 275.456 257.136 271.995C252.296 268.534 250.176 277.716 249.354 274.139C248.532 270.563 248.163 264.631 251.096 265.772C254.028 266.913 254 261.98 249.528 260.765C245.055 259.55 245.435 250.877 248.819 251.75C252.203 252.622 256.743 254.871 256.7 251.4C256.657 247.929 256.753 242.353 259.325 244.446C261.897 246.539 262.369 242.235 265.003 242.164C267.636 242.093 264.825 248.167 266.483 248.087C268.141 248.006 267.049 247.108 268.907 247.487Z" fill="url(#paint12_linear_3148_519)"/>
<path d="M243.308 243.297C245.307 245.985 245.68 254.49 237.138 252.568C234.381 251.948 234.563 250.623 231.933 252.017C229.105 253.516 228.039 252.982 225.247 251.258C221.987 249.246 221.662 246.054 216.147 247.295C210.847 248.487 203.877 248.26 207.048 245.365C210.219 242.469 200.43 236.265 199.465 241.229C198.5 246.192 197.259 255.291 190.503 249.087C183.748 242.883 184.989 231.026 187.608 233.646C190.228 236.265 195.88 233.508 197.121 230.475C198.362 227.442 203.05 219.721 206.634 224.133C210.219 228.545 213.39 228.683 213.941 226.615C214.493 224.547 225.66 223.719 222.903 227.856C220.146 231.992 225.66 238.333 227.866 236.955C230.072 235.576 240.55 235.714 241.515 237.782C242.481 239.85 241.309 240.608 243.308 243.297Z" fill="url(#paint13_linear_3148_519)"/>
<path d="M250.649 155.337C247.367 154.369 247.547 153.682 247.892 155.613C248.237 157.543 250.787 161.058 253.407 159.68C256.026 158.301 258.784 159.749 256.991 161.127C255.199 162.506 261.334 166.159 261.541 164.712C261.748 163.264 260.576 160.783 262.23 161.954C263.885 163.126 268.435 165.47 267.745 162.713C267.056 159.955 267.745 158.094 269.469 158.921C271.192 159.749 273.674 154.165 271.261 154.372C268.848 154.579 267.538 150.236 266.298 151.959C265.057 153.682 261.748 152.786 261.955 151.546C262.161 150.305 257.474 149.064 257.543 150.787C257.612 152.511 259.887 156.302 258.025 156.233C256.164 156.164 258.025 152.717 256.922 152.786C255.819 152.855 254.303 149.96 253.131 151.201C251.959 152.442 252.898 156 250.649 155.337Z" fill="#ABB313"/>
<path d="M280.154 34.017C283.183 29.5877 288.761 28.4021 293.065 32.8284C293.065 32.8284 299.131 22.6232 306.385 30.8611C306.385 30.8611 297.163 25.4921 293.475 39.427C290.565 30.9841 286.601 31.1369 280.154 34.017Z" fill="#666666"/>
<path d="M319.214 5.40933C323.554 1.51288 327.575 1.22889 331.223 5.32729C331.223 5.32729 338.313 -4.34515 345.896 2.37636C345.896 2.37636 336.264 -3.23857 332.739 13.0324C328.272 7.21259 328.202 3.59487 319.214 5.40933Z" fill="#666666"/>
<path d="M362.586 107.972L361 107.936C361 107.936 359.598 155.816 359.528 225.189C359.528 225.848 340.793 221.343 340.801 221.708C340.809 222.073 359.56 227.308 359.559 227.961C359.531 240.939 359.429 253.309 359.226 264.4C359.219 264.804 332.424 252.11 332.416 252.511C332.41 252.863 359.19 266.31 359.183 266.66C358.201 286.375 362.549 344.728 359.249 364.643C359.249 364.643 361.916 364.697 366.817 364.643C367.895 356.572 363.24 286.23 363.241 284.06C363.241 283.376 374.624 278.379 374.624 278.379L374.822 277.582C374.822 277.582 366.506 281.291 365.367 281.652C363.101 282.372 363.404 281.324 363.404 281.324C363.404 281.324 363.035 262.369 363.023 261.805C363.012 261.315 367.835 255.917 370.054 254.757C372.761 253.343 378.901 252.109 378.901 252.109C378.901 252.109 372.454 252.733 369.588 254.098C367.032 255.316 363.557 259.483 363.127 259.374C362.239 259.151 362.028 210.856 362.028 210.856L369.301 202.706L361.999 209.33L362.338 150.647L370.983 145.523L362.346 149.346L362.586 107.972Z" fill="#6E4F37"/>
<path d="M360.999 207.339C360.999 207.339 358.609 201.552 357.282 202.826C355.954 204.1 355.052 201.499 353.246 200.543C351.441 199.587 352.768 201.339 349.795 201.446C346.822 201.552 349.105 196.189 345.6 197.835C342.096 199.481 345.547 201.021 344.114 201.446C342.68 201.87 339.282 195.393 338.273 198.685C337.264 201.977 336.733 202.879 333.123 203.782C329.512 204.685 340.822 207.233 341.087 205.8C341.353 204.366 345.866 205.003 345.6 207.552C345.335 210.1 349.53 213.18 350.963 209.941C352.397 206.702 353.565 208.189 355.689 209.091C357.813 209.994 360.999 207.339 360.999 207.339Z" fill="#3E7606"/>
<path d="M377.892 254.36C377.124 253.879 374.137 254.623 372.973 252.407C371.809 250.192 376.014 250.605 377.329 251.319C378.643 252.032 380.22 248.353 382.923 247.827C385.626 247.301 384.73 248.771 385.175 248.69C386.069 248.529 387.278 247.151 387.541 247.339C387.804 247.527 389.493 251.018 390.207 250.455C390.92 249.892 392.76 249.854 392.722 251.206C392.685 252.558 389.981 256.162 388.517 254.885C387.053 253.609 386.039 251.957 385.776 252.407C385.513 252.858 383.116 257.632 377.892 254.36Z" fill="url(#paint14_linear_3148_519)"/>
<path d="M336.149 232.465C337.71 231.615 340.598 236.293 345.39 227.445C346.028 226.266 351.932 226.402 352.258 223.064C352.833 217.168 345.736 221.459 344.83 220.601C342.78 218.66 339.401 218.779 338.887 220.978C338.031 224.637 337.432 217.66 335.208 217.915C332.983 218.17 334.609 221.489 334.01 221.914C333.411 222.339 330.284 221.519 330.673 225.573C330.844 227.36 326.243 224.722 326.565 227.87C327.382 235.852 324.707 229.595 321.175 231.741C320.104 232.392 321.826 233.263 321.148 233.935C319.305 235.764 321.287 237.859 322.373 237.144C325.282 235.23 328.619 239.271 329.303 238.165C329.988 237.059 330.95 233.208 334.352 234.592C335.293 234.975 335.332 232.909 336.149 232.465Z" fill="#8F930F"/>
<path d="M386.234 202.443C383.955 202.102 382.93 201.767 382.329 206.047C381.555 211.566 381.761 210.723 378.425 210.627C376.318 210.567 375.42 212.266 374.069 211.153C372.484 209.846 369.957 207.328 368.062 207.398C366.186 207.468 360.468 210.943 364.307 204.47C366.936 200.04 369.14 203.554 375.646 197.937C382.581 191.951 382.329 195.384 384.206 195.835C385.854 196.23 395.77 203.869 386.234 202.443Z" fill="url(#paint15_linear_3148_519)"/>
<path d="M357.75 185.906C356.387 185.615 354.164 182.062 352.548 183.756C350.502 185.9 349.159 181.071 347.461 183.726C345.799 186.324 346.553 186.124 345.357 186.688C344.715 186.991 342.941 185.122 341.384 187.965C340.735 189.15 338.564 187.309 338.498 189.026C338.442 190.476 340.855 192.078 342.113 192.888C346.568 195.756 348.35 193.929 349.051 193.977C350.465 194.075 355.847 196.165 356.934 193.446C358.021 190.728 362.426 194.78 363.785 192.882C365.144 190.984 362.025 189.537 361.61 188.92C360.014 186.545 361.795 186.77 357.75 185.906Z" fill="url(#paint16_linear_3148_519)"/>
<path d="M347.995 139.028C346.407 139.766 347.909 139.997 348.228 142.089C348.546 144.182 346.153 141.235 346.223 142.772C346.292 144.309 349.656 146.33 350.513 145.193C351.37 144.056 353.042 144.9 353.338 146.575C353.633 148.25 357.555 148.599 356.44 146.936C355.324 145.274 355.645 144.72 357.405 145.643C359.166 146.565 364.49 145.93 362.912 144.679C361.334 143.428 360.121 144.091 359.762 142.47C359.403 140.849 358.376 139.672 356.802 139.396C355.981 139.252 355.424 139.379 355.362 139.996C355.238 141.244 355.339 141.637 354.186 141.099C353.034 140.561 353.495 138.538 352.332 138.756C350.069 139.179 349.303 138.42 347.995 139.028Z" fill="#639509"/>
<path d="M362.93 194.546C362.734 194.546 358.811 193.344 361.851 192.368C364.891 191.392 362.292 187.412 364.548 188.276C366.804 189.139 364.94 184.634 366.951 185.573C368.961 186.511 378.474 186.662 377.641 187.825C376.807 188.989 382.495 187.75 380.436 189.44C378.376 191.129 374.012 190.341 373.865 191.467C373.718 192.594 376.17 193.645 373.522 194.658C370.874 195.672 368.814 200.628 367.588 199.051C366.362 197.474 364.793 194.621 363.862 194.583C362.93 194.546 362.93 194.546 362.93 194.546Z" fill="#396103"/>
<path d="M360.627 179.57C360.627 179.57 359.512 177.606 358.078 178.137C356.644 178.668 360.414 174.048 358.29 173.836C356.166 173.624 358.078 176.013 355.742 175.429C353.405 174.845 357.919 171.659 354.627 171.818C351.335 171.978 347.459 173.305 349.37 174.473C351.282 175.641 350.485 176.331 349.37 176.331C348.255 176.331 348.096 179.889 349.105 179.199C350.113 178.508 351.653 176.278 352.184 177.606C352.715 178.933 354.361 180.101 354.998 178.721C355.636 177.34 355.529 183.181 356.697 181.96C357.866 180.738 361.423 180.791 360.627 179.57Z" fill="#6E9223"/>
<path d="M364.018 176.199C361.878 174.547 359.813 175.185 363.756 173.871C367.698 172.557 364.507 171.881 364.131 172.032C363.756 172.182 364.957 167.752 366.684 170.117C368.411 172.482 369.35 167.639 370.964 170.643C372.579 173.646 369.8 171.731 369.988 173.083C370.176 174.434 374.531 171.206 374.794 173.045C375.057 174.885 379.75 174.66 379.863 172.445C379.975 170.23 382.716 170.154 382.866 171.506C383.016 172.858 379.975 172.82 381.102 173.721C382.228 174.622 382.603 176.612 381.064 176.65C379.525 176.687 379.374 181.906 377.835 180.855C376.296 179.803 373.18 183.333 372.691 181.605C372.203 179.878 374.005 176.612 372.804 177.438C371.603 178.264 373.067 180.066 372.241 179.954C371.415 179.841 367.66 181.343 368.599 179.353C369.538 177.363 366.046 177.363 365.821 178.377C365.595 179.39 363.117 178.79 363.53 177.889C363.943 176.988 364.578 176.373 364.018 176.199C364.018 176.199 364.018 176.199 364.018 176.199Z" fill="#397102"/>
<path d="M368.612 159.539C372.405 161.435 374.555 163.332 371.457 163.269C368.359 163.206 366.209 163.016 366.588 164.787C366.968 166.557 362.921 168.581 362.984 167C363.047 165.419 359.696 161.815 359.949 164.154C360.202 166.494 359 168.644 358.115 167.316C357.23 165.988 350.654 166.62 351.981 165.482C353.309 164.344 354.574 162.194 352.614 162.7C350.654 163.206 346.227 164.66 346.607 163.079C346.986 161.499 342.876 158.527 341.801 161.309C340.726 164.091 339.525 165.798 338.576 163.901C337.628 162.005 332 162.51 334.023 160.55C336.047 158.59 335.604 152.141 338.45 154.417C341.295 156.693 339.904 153.595 342.244 154.29C344.583 154.986 343.445 147.019 346.607 149.358C349.768 151.698 347.745 158.78 349.515 156.251C351.286 153.721 349.452 149.105 352.361 151.382C355.27 153.658 351.096 156.44 353.752 156.061C356.408 155.681 358.431 149.105 360.897 152.457C363.363 155.808 360.075 157.831 361.972 157.895C363.869 157.958 367.347 153.026 367.916 155.176C368.485 157.325 368.495 158.07 368.612 159.539C368.612 159.539 368.612 159.539 368.612 159.539Z" fill="url(#paint17_linear_3148_519)"/>
<path d="M365.295 149.655C364.094 151.72 364.544 152.32 366.271 151.457C367.999 150.593 370.176 153.259 370.476 151.607C370.777 149.955 371.866 149.242 373.443 149.955C375.019 150.669 377.009 148.529 375.658 147.778C374.306 147.027 377.422 145.562 377.76 147.064C378.098 148.566 380.989 145.6 377.91 144.699C374.832 143.798 376.747 142.183 377.648 141.921C378.549 141.658 375.958 139.18 375.583 140.607C375.207 142.033 374.907 137.34 373.818 139.217C372.729 141.095 367.848 136.364 368.787 139.33C369.726 142.296 371.565 139.968 371.528 140.869C371.49 141.771 368.674 143.61 367.323 141.433C365.971 139.255 364.695 143.272 365.483 143.16C366.271 143.047 366.572 144.737 365.821 144.549C365.07 144.361 362.93 146.877 364.056 147.365C365.183 147.853 367.022 146.801 366.647 147.665C366.271 148.529 365.009 148.906 365.295 149.655C365.295 149.655 365.295 149.655 365.295 149.655Z" fill="#5F9204"/>
<path d="M352.455 132.235C352.183 128.252 348.362 133.662 351.028 134.337C353.694 135.013 353.018 137.829 354.857 136.44C356.697 135.051 355.871 135.051 357.298 135.726C358.725 136.402 361.503 134.863 361.39 134.074C361.278 133.286 364.347 135.633 363.643 136.215C362.779 136.928 364.544 137.979 367.06 136.74C369.575 135.501 368.036 135.238 370.063 135.802C372.091 136.365 373.405 135.539 372.954 134.713C372.504 133.887 376.859 133.699 377.535 135.126C378.211 136.552 381.74 131.972 379.037 132.197C376.333 132.423 377.572 130.32 376.371 130.996C375.169 131.672 374.006 131.597 373.517 130.02C373.029 128.443 371.678 128.33 371.115 129.231C370.551 130.132 370.063 128.818 369.838 127.88C369.613 126.941 368.111 125.214 367.398 126.716C366.684 128.218 366.482 124.587 365.37 125.214C363.906 126.04 366.265 127.392 364.431 127.392C363.23 127.392 365.145 125.101 362.892 124.839C361.05 124.624 362.592 125.965 361.691 126.415C360.79 126.866 359.062 125.289 359.4 126.303C359.738 127.316 361.315 128.443 359.438 128.142C357.561 127.842 355.045 128.781 356.021 129.194C356.997 129.607 355.608 132.085 355.27 130.846C354.933 129.607 354.632 129.306 353.731 130.17C352.83 131.033 354.595 131.747 353.618 132.01C352.896 132.059 352.503 132.808 352.455 132.235Z" fill="#AAB712"/>
<path d="M350.164 114.476C347.761 113.913 348.662 112.336 350.577 112.786C352.492 113.237 352.417 110.571 353.168 111.698C353.919 112.824 355.083 110.308 355.646 111.322C356.209 112.336 357.035 113.237 357.486 112.035C357.936 110.834 359.4 110.909 359.438 111.698C359.475 112.486 358.086 112.411 358.8 113.087C359.513 113.762 361.841 110.909 361.653 112.298C361.465 113.687 366.534 115.452 364.394 116.165C362.254 116.879 359.813 116.766 360.264 118.005C360.714 119.244 360.527 120.858 358.537 119.807C356.547 118.756 353.881 121.91 353.393 119.957C352.905 118.005 349.188 118.493 349.714 117.517C350.239 116.541 347.761 115.264 349.263 115.452C350.765 115.64 351.704 114.513 350.915 114.551C350.127 114.588 350.333 114.662 350.164 114.476C350.164 114.476 350.164 114.476 350.164 114.476Z" fill="#96AC0B"/>
<path d="M362.855 109.971C360.903 110.309 361.015 109.633 362.179 108.807C363.343 107.981 362.817 106.779 361.09 107.08C359.363 107.38 357.11 102.987 358.988 103.438C360.865 103.889 361.916 100.885 362.742 102.462C363.568 104.039 365.934 101.861 365.971 103.4C366.009 104.94 369.125 104.79 368.937 104.039C368.749 103.288 371.227 101.749 371.678 103.476C372.129 105.203 377.16 104.302 376.108 106.817C375.057 109.332 373.405 109.896 371.828 108.882C370.251 107.868 369.425 109.483 369.087 110.384C368.749 111.285 367.435 111.548 366.572 110.158C365.708 108.769 365.633 108.394 364.882 109.107C364.131 109.821 363.297 109.894 362.855 109.971Z" fill="#E9EF87"/>
<path d="M349.676 256.506C352.079 259.285 357.185 258.759 351.854 260.937C346.523 263.114 353.806 268.295 348.85 269.722C343.894 271.149 342.468 270.398 342.393 267.019C342.317 263.64 340.14 261.162 337.437 264.241C334.733 267.319 340.515 266.568 337.587 267.695C334.658 268.821 333.532 268.971 332.931 266.043C332.33 263.114 332.105 262.889 329.177 263.94C326.248 264.991 322.644 263.114 323.395 260.561C324.145 258.008 321.142 247.871 326.398 251.701C331.655 255.53 332.856 245.318 335.184 249.748C337.512 254.179 343.519 242.014 344.12 246.52C344.72 251.025 335.259 255.605 341.116 254.93C346.973 254.254 350.127 244.192 350.427 249.373C350.728 254.554 348.077 254.729 349.676 256.506C349.676 256.506 349.676 256.506 349.676 256.506Z" fill="url(#paint18_linear_3148_519)"/>
<path d="M332.759 237.168C331.327 237.461 327.814 241.333 333.266 244.252C338.717 247.171 334.952 247.689 335.266 248.963C335.579 250.236 338.097 258.711 341.825 256.045C345.553 253.379 347.186 260.452 347.819 257.697C348.452 254.942 348.737 250.373 346.478 251.252C344.219 252.131 344.24 248.331 347.685 247.395C351.13 246.46 350.838 239.779 348.231 240.451C345.625 241.123 342.128 242.856 342.161 240.182C342.194 237.509 342.12 233.214 340.139 234.826C338.158 236.438 337.794 233.122 335.766 233.068C333.738 233.013 335.903 237.692 334.626 237.63C333.348 237.568 334.19 236.876 332.759 237.168Z" fill="url(#paint19_linear_3148_519)"/>
<path d="M352.476 225.548C350.937 223.477 350.649 216.926 357.229 218.406C359.352 218.884 359.212 219.904 361.237 218.831C363.416 217.676 364.237 218.088 366.388 219.415C368.899 220.965 369.149 223.424 373.397 222.468C377.479 221.549 382.848 221.725 380.405 223.955C377.963 226.185 385.503 230.963 386.246 227.14C386.989 223.318 387.945 216.309 393.149 221.088C398.352 225.866 397.396 234.999 395.379 232.981C393.361 230.963 389.007 233.087 388.051 235.423C387.096 237.76 383.485 243.706 380.724 240.308C377.963 236.91 375.52 236.804 375.096 238.397C374.671 239.99 366.069 240.627 368.193 237.441C370.317 234.255 366.069 229.371 364.37 230.432C362.671 231.494 354.6 231.388 353.857 229.795C353.114 228.202 354.016 227.618 352.476 225.548Z" fill="url(#paint20_linear_3148_519)"/>
<path d="M346.822 166.19C349.35 165.445 349.211 164.916 348.945 166.403C348.68 167.889 346.715 170.597 344.698 169.535C342.68 168.473 340.556 169.588 341.937 170.65C343.317 171.712 338.592 174.526 338.432 173.411C338.273 172.296 339.176 170.385 337.901 171.287C336.627 172.19 333.123 173.995 333.654 171.871C334.185 169.748 333.654 168.314 332.326 168.951C330.999 169.588 329.087 165.288 330.946 165.447C332.804 165.606 333.813 162.261 334.769 163.588C335.724 164.916 338.273 164.226 338.114 163.27C337.954 162.314 341.565 161.358 341.512 162.686C341.459 164.013 339.707 166.934 341.14 166.88C342.574 166.827 341.14 164.173 341.99 164.226C342.839 164.279 344.007 162.049 344.91 163.004C345.813 163.96 345.09 166.701 346.822 166.19Z" fill="#ABB313"/>
<path d="M288.218 385.246C297.946 362.526 300.959 335.512 306.684 337.02C324.832 341.801 344.949 343.895 363.636 338.841C363.636 338.841 359.161 378.658 349.51 394.234C314.394 392.213 286.948 388.211 288.218 385.246Z" fill="#BD977C"/>
<path d="M287.954 386.245L287.393 380.895L284.523 381.543L287.213 386.233" fill="#6E4F37"/>
<path d="M377.269 385.535L379.363 380.449L382.243 380.702L377.928 385.553" fill="#6E4F37"/>
<path d="M363.636 338.841L368.904 385.345C368.904 385.345 372.993 385.899 377.172 385.345C370.187 367.378 363.636 338.841 363.636 338.841C358.73 366.712 357.643 377.745 349.348 394.37C357.671 393.084 357.146 390.754 364.722 389.139C365.289 372.93 363.636 338.841 363.636 338.841Z" fill="#D2AB8C"/>
<path d="M350.054 395.313L349.902 391.257L353.546 391.254L350.819 395.334" fill="#6E4F37"/>
<path d="M368.75 384.032C368.75 384.032 366.109 360.672 363.636 338.841C364.566 363.73 365.027 369.484 364.831 383.582C366.947 383.825 368.75 384.032 368.75 384.032Z" fill="#A78267"/>
<defs>
<filter id="filter0_d_3148_519" x="0" y="354.617" width="457" height="114.383" filterUnits="userSpaceOnUse" color-interpolation-filters="sRGB">
<feFlood flood-opacity="0" result="BackgroundImageFix"/>
<feColorMatrix in="SourceAlpha" type="matrix" values="0 0 0 0 0 0 0 0 0 0 0 0 0 0 0 0 0 0 127 0" result="hardAlpha"/>
<feOffset dx="1" dy="9"/>
<feGaussianBlur stdDeviation="4"/>
<feComposite in2="hardAlpha" operator="out"/>
<feColorMatrix type="matrix" values="0 0 0 0 0 0 0 0 0 0 0 0 0 0 0 0 0 0 0.64 0"/>
<feBlend mode="normal" in2="BackgroundImageFix" result="effect1_dropShadow_3148_519"/>
<feBlend mode="normal" in="SourceGraphic" in2="effect1_dropShadow_3148_519" result="shape"/>
</filter>
<linearGradient id="paint0_linear_3148_519" x1="178.75" y1="274.24" x2="189.099" y2="261.364" gradientUnits="userSpaceOnUse">
<stop stop-color="#3F6008"/>
<stop offset="1" stop-color="#E9EF87"/>
</linearGradient>
<linearGradient id="paint1_linear_3148_519" x1="177.934" y1="225.996" x2="165.71" y2="207.89" gradientUnits="userSpaceOnUse">
<stop stop-color="#6B9F16"/>
<stop offset="1" stop-color="#E9EF87"/>
</linearGradient>
<linearGradient id="paint2_linear_3148_519" x1="136.386" y1="203.364" x2="159.527" y2="220.533" gradientUnits="userSpaceOnUse">
<stop stop-color="#8ABC1F"/>
<stop offset="1" stop-color="#396103"/>
</linearGradient>
<linearGradient id="paint3_linear_3148_519" x1="151.828" y1="183.605" x2="144.502" y2="170.837" gradientUnits="userSpaceOnUse">
<stop stop-color="#3F7751"/>
<stop offset="1" stop-color="#AAB712"/>
</linearGradient>
<linearGradient id="paint4_linear_3148_519" x1="143.866" y1="299.632" x2="121.45" y2="270.661" gradientUnits="userSpaceOnUse">
<stop stop-color="#18451B"/>
<stop offset="1" stop-color="#AAB712"/>
</linearGradient>
<linearGradient id="paint5_linear_3148_519" x1="140.303" y1="266.631" x2="119.202" y2="257.602" gradientUnits="userSpaceOnUse">
<stop stop-color="#3F6008"/>
<stop offset="1" stop-color="#E9EF87"/>
</linearGradient>
<linearGradient id="paint6_linear_3148_519" x1="171.761" y1="247.131" x2="167.906" y2="265.865" gradientUnits="userSpaceOnUse">
<stop stop-color="#236100"/>
<stop offset="1" stop-color="#F3F55C"/>
</linearGradient>
<linearGradient id="paint7_linear_3148_519" x1="206.499" y1="268.597" x2="192.866" y2="251.634" gradientUnits="userSpaceOnUse">
<stop stop-color="#3F6008"/>
<stop offset="1" stop-color="#E9EF87"/>
</linearGradient>
<linearGradient id="paint8_linear_3148_519" x1="213.892" y1="211.283" x2="197.789" y2="187.432" gradientUnits="userSpaceOnUse">
<stop stop-color="#6B9F16"/>
<stop offset="1" stop-color="#E9EF87"/>
</linearGradient>
<linearGradient id="paint9_linear_3148_519" x1="262.305" y1="175.23" x2="231.821" y2="197.848" gradientUnits="userSpaceOnUse">
<stop stop-color="#8ABC1F"/>
<stop offset="1" stop-color="#396103"/>
</linearGradient>
<linearGradient id="paint10_linear_3148_519" x1="241.964" y1="149.202" x2="251.614" y2="132.382" gradientUnits="userSpaceOnUse">
<stop stop-color="#3F7751"/>
<stop offset="1" stop-color="#AAB712"/>
</linearGradient>
<linearGradient id="paint11_linear_3148_519" x1="252.451" y1="302.045" x2="281.981" y2="263.881" gradientUnits="userSpaceOnUse">
<stop stop-color="#18451B"/>
<stop offset="1" stop-color="#AAB712"/>
</linearGradient>
<linearGradient id="paint12_linear_3148_519" x1="257.145" y1="258.572" x2="284.942" y2="246.679" gradientUnits="userSpaceOnUse">
<stop stop-color="#3F6008"/>
<stop offset="1" stop-color="#E9EF87"/>
</linearGradient>
<linearGradient id="paint13_linear_3148_519" x1="215.706" y1="242.812" x2="220.783" y2="218.133" gradientUnits="userSpaceOnUse">
<stop stop-color="#236100"/>
<stop offset="1" stop-color="#F3F55C"/>
</linearGradient>
<linearGradient id="paint14_linear_3148_519" x1="380.829" y1="253.428" x2="391.329" y2="240.362" gradientUnits="userSpaceOnUse">
<stop stop-color="#3F6008"/>
<stop offset="1" stop-color="#E9EF87"/>
</linearGradient>
<linearGradient id="paint15_linear_3148_519" x1="380" y1="204.477" x2="367.597" y2="186.105" gradientUnits="userSpaceOnUse">
<stop stop-color="#6B9F16"/>
<stop offset="1" stop-color="#E9EF87"/>
</linearGradient>
<linearGradient id="paint16_linear_3148_519" x1="337.844" y1="181.512" x2="361.324" y2="198.933" gradientUnits="userSpaceOnUse">
<stop stop-color="#8ABC1F"/>
<stop offset="1" stop-color="#396103"/>
</linearGradient>
<linearGradient id="paint17_linear_3148_519" x1="353.512" y1="161.465" x2="346.078" y2="148.509" gradientUnits="userSpaceOnUse">
<stop stop-color="#3F7751"/>
<stop offset="1" stop-color="#AAB712"/>
</linearGradient>
<linearGradient id="paint18_linear_3148_519" x1="345.434" y1="279.191" x2="322.688" y2="249.795" gradientUnits="userSpaceOnUse">
<stop stop-color="#18451B"/>
<stop offset="1" stop-color="#AAB712"/>
</linearGradient>
<linearGradient id="paint19_linear_3148_519" x1="341.818" y1="245.707" x2="320.408" y2="236.545" gradientUnits="userSpaceOnUse">
<stop stop-color="#3F6008"/>
<stop offset="1" stop-color="#E9EF87"/>
</linearGradient>
<linearGradient id="paint20_linear_3148_519" x1="373.737" y1="225.921" x2="369.826" y2="244.93" gradientUnits="userSpaceOnUse">
<stop stop-color="#236100"/>
<stop offset="1" stop-color="#F3F55C"/>
</linearGradient>
</defs>
</svg>
