<svg class="mx-auto" width="92" height="133" viewBox="0 0 92 133" xmlns="http://www.w3.org/2000/svg">
<path d="M12.3387 132.911C6.41677 132.17 2.47458 129.258 0.924472 124.481C0.561098 123.361 0.50782 122.954 0.500519 121.241C0.493613 119.621 0.552862 119.073 0.842899 118.077C1.77663 114.867 4.06308 112.125 6.92215 110.786C7.45074 110.538 8.08712 110.293 8.33631 110.241C8.5855 110.188 8.39506 110.314 7.9131 110.519C6.45569 111.139 5.40788 111.843 4.2522 112.979C1.12263 116.056 0.0832789 120.731 1.63007 124.772C2.25215 126.398 3.01232 127.517 4.35474 128.784C7.18959 131.459 11.7424 132.617 17.7448 132.19C27.4313 131.5 37.1012 127.717 47.7539 120.449C48.6676 119.826 49.4492 119.271 49.4907 119.216C49.5322 119.161 50.3817 118.498 51.3785 117.744C54.3666 115.481 57.8115 112.43 63.1585 107.311C73.412 97.4927 79.8162 93.2295 87.2674 91.2614C88.7667 90.8654 89.4967 90.7655 89.0593 91.016C88.9347 91.0874 88.4381 91.2266 87.9557 91.3253C85.1784 91.8937 80.881 93.8506 77.5814 96.0495C73.6289 98.6834 70.3772 101.464 63.385 108.19C56.3195 114.986 54.1487 116.915 50.8059 119.364C50.0756 119.899 48.9882 120.698 48.3895 121.14C46.8301 122.29 43.692 124.253 41.1626 125.661C34.3463 129.456 27.6978 131.792 20.9469 132.764C19.3922 132.987 13.7233 133.085 12.3387 132.911ZM17.7754 110.524C17.7754 110.407 19.3567 104.337 19.6548 103.309C19.775 102.895 20.1148 101.538 20.4099 100.295C21.4122 96.0725 22.3036 92.8449 24.1348 86.8085C25.0401 83.824 25.503 82.2422 26.0749 80.1782C27.4271 75.2982 30.2699 66.9472 32.051 62.6229C32.3582 61.8769 32.7619 60.8937 32.9481 60.4379C35.0335 55.3336 39.561 46.4731 43.0733 40.6222C44.5154 38.2198 47.6057 33.4372 48.5765 32.1052C48.9703 31.5648 49.4061 30.8867 49.5449 30.5983C49.9418 29.7733 54.0538 24.387 56.765 21.1407C59.1819 18.2468 59.5403 17.7928 59.4078 17.7928C59.0369 17.7928 50.0913 28.6429 49.3742 29.9625C49.2306 30.2268 48.4628 31.3432 47.6679 32.4435C40.2685 42.6856 33.363 55.2469 29.2305 65.9816C27.5769 70.2768 27.2364 71.1796 26.6889 72.719C26.3647 73.6307 25.9505 74.953 25.7685 75.6575C25.5865 76.3619 25.3846 76.9968 25.3199 77.0683C25.1559 77.2492 24.3228 76.0766 23.7822 74.904C22.7255 72.612 21.9806 68.6955 21.9481 65.2599C21.9333 63.6929 22.2788 60.4379 22.46 60.4379C22.5224 60.4379 22.6939 60.6243 22.8411 60.8523C23.3758 61.68 25.973 64.9585 26.094 64.9585C26.1624 64.9585 26.1136 64.6364 25.9855 64.2428C25.4245 62.5183 24.7143 59.5167 24.4159 57.6084C24.1274 55.7634 24.1146 55.454 24.2969 54.7383L24.5013 53.9361L25.8233 55.4541C26.5504 56.2889 27.2102 56.972 27.2895 56.972C27.3688 56.972 26.9178 56.3135 26.2873 55.5088C25.6568 54.704 25.0434 53.8969 24.9241 53.7153C24.7267 53.4147 24.7882 53.1431 25.6071 50.6955C27.7534 44.2801 28.6072 42.1895 29.9194 40.1351C31.3043 37.9672 33.5796 34.8678 33.6989 34.9868C33.7328 35.0206 34.2459 35.9903 34.8391 37.1417C35.4324 38.293 36.0833 39.4781 36.2856 39.7752C36.6324 40.2844 36.6535 40.2939 36.6527 39.9414C36.6522 39.7357 36.5484 38.8893 36.422 38.0605C36.2956 37.2317 36.1855 35.5364 36.1774 34.2933C36.165 32.4073 36.2173 31.8312 36.4932 30.8153C36.9186 29.2488 37.2778 28.7267 39.4678 26.4923C41.4703 24.4493 42.8113 22.7776 44.0985 20.7196C44.8986 19.4403 45.4913 18.7174 45.6223 18.8611C45.6534 18.8951 45.8664 19.2955 46.0957 19.7509C47.0274 21.6008 48.8679 24.2724 49.2107 24.2724C49.2859 24.2724 49.2518 24.0859 49.1349 23.858C48.4369 22.4972 47.0743 18.3502 47.0743 17.5868C47.0743 17.3025 48.9155 15.1957 50.6989 13.4395C52.7672 11.4027 55.683 9.04906 58.0236 7.52715C59.3278 6.67912 61.8552 5.28557 62.0891 5.28557C62.1294 5.28557 62.0617 5.60767 61.9387 6.00135C61.5988 7.08925 61.0932 9.22733 61.16 9.294C61.1925 9.32648 61.4343 8.78794 61.6973 8.09725C62.787 5.23469 64.0436 3.96184 67.3782 2.34264C72.451 -0.12057 75.9234 -0.670821 76.9103 0.832139C77.2811 1.39679 77.1274 2.8107 76.5442 4.19976C75.3701 6.99627 71.0629 14.0247 69.5311 15.6436C68.1032 17.1528 66.3045 18.2444 63.8759 19.076C63.1906 19.3106 62.6299 19.5482 62.6299 19.6039C62.6299 19.6597 63.5943 19.7513 64.7729 19.8074C65.9516 19.8636 66.9419 19.9353 66.9735 19.9669C67.0263 20.0195 66.2264 21.3462 64.2415 24.4985C63.031 26.4208 61.6667 28.2087 60.7501 29.0736C59.8931 29.8823 57.538 31.1148 54.8135 32.1804C54.2108 32.4161 53.7464 32.6376 53.7815 32.6726C53.8166 32.7075 54.3776 32.5899 55.0283 32.4111C57.7023 31.6763 59.658 31.2024 59.728 31.2722C59.82 31.364 59.4507 31.506 56.9332 32.3468C55.8352 32.7136 54.5779 33.0914 54.1393 33.1865C52.5434 33.5324 53.7887 33.4814 56.4023 33.0938C57.8755 32.8753 59.1997 32.6723 59.3451 32.6426C59.4905 32.6129 59.6094 32.6143 59.6094 32.6457C59.6094 32.7471 57.3808 37.4236 56.8135 38.5126C55.3444 41.333 53.9065 43.7992 53.3901 44.3846C52.6305 45.2457 51.5778 45.9015 50.4709 46.2034C49.9733 46.3391 49.1016 46.5745 48.5336 46.7267C47.2099 47.0812 45.2946 47.856 44.8089 48.2334L44.4313 48.5267L45.0394 48.5301C46.0706 48.5358 47.9738 48.2516 50.0844 47.7768C51.1947 47.527 52.1385 47.3579 52.1817 47.4011C52.225 47.4443 52.1148 47.8015 51.937 48.1949C51.2246 49.7707 49.4907 54.5627 49.4907 54.9556C49.4907 55.7 47.6631 59.6314 46.1715 62.0955C44.0274 65.6377 43.3348 66.438 40.8505 68.2433C40.2101 68.7087 39.7133 69.1166 39.7465 69.1497C39.7797 69.1829 40.7964 68.6668 42.0058 68.0028C43.2153 67.3389 44.2048 66.8582 44.2048 66.9346C44.2048 67.1433 42.7759 69.4005 41.9825 70.4452C39.6786 73.4786 36.5064 76.1716 33.2688 77.8426C31.585 78.7116 29.675 80.1972 28.6204 81.4581C27.6354 82.6357 27.6399 82.6248 26.2593 87.2607C25.9261 88.3795 25.4079 90.1087 25.1077 91.1032C24.8076 92.0978 24.3545 93.6235 24.1008 94.4937C23.8471 95.364 23.5135 96.4828 23.3594 96.9801C23.2053 97.4774 22.866 98.6641 22.6055 99.6172C22.3449 100.57 21.9944 101.811 21.8267 102.374C21.6562 102.947 21.5629 103.562 21.6151 103.769C21.6665 103.974 21.9959 104.341 22.3471 104.585C22.6984 104.829 23.1067 105.117 23.2546 105.224C23.4977 105.4 23.3693 105.548 21.9124 106.775C21.0264 107.521 19.7764 108.691 19.1347 109.374C18.0505 110.53 17.7754 110.762 17.7754 110.524ZM21.7616 105.908C22.0042 105.522 21.6952 105.117 21.157 105.117C20.8151 105.117 20.7096 105.193 20.6707 105.467C20.6433 105.66 20.66 105.919 20.7076 106.042C20.8233 106.343 21.5463 106.251 21.7616 105.908ZM89.6274 90.7705C89.8153 90.7345 90.0871 90.7358 90.2315 90.7734C90.3759 90.8111 90.2222 90.8406 89.8899 90.8389C89.5577 90.8372 89.4395 90.8066 89.6274 90.7705ZM90.9094 90.6225C91.0547 90.5846 91.2926 90.5846 91.438 90.6225C91.5833 90.6604 91.4644 90.6914 91.1737 90.6914C90.8829 90.6914 90.764 90.6604 90.9094 90.6225Z"/>
</svg>
